<svg xmlns="http://www.w3.org/2000/svg" xmlns:xlink="http://www.w3.org/1999/xlink" width="800" zoomAndPan="magnify" viewBox="0 0 600 599.999999" height="800" preserveAspectRatio="xMidYMid meet" version="1.0"><defs><g/></defs><rect x="-60" width="720" fill="#ffffff" y="-60" height="719.999999" fill-opacity="1"/><rect x="-60" width="720" fill="#ffffff" y="-60" height="719.999999" fill-opacity="1"/><path fill="#47126b" d="M 300 68.324219 C 308.078125 68.324219 316.128906 68.746094 324.164062 69.589844 C 332.195312 70.433594 340.160156 71.691406 348.0625 73.367188 C 355.960938 75.046875 363.753906 77.128906 371.4375 79.621094 C 379.117188 82.113281 386.648438 85 394.03125 88.28125 C 401.410156 91.558594 408.597656 95.21875 415.597656 99.25 C 422.59375 103.28125 429.363281 107.667969 435.898438 112.410156 C 442.4375 117.152344 448.710938 122.21875 454.71875 127.617188 C 460.726562 133.015625 466.4375 138.710938 471.847656 144.707031 L 300 299.832031 Z M 300 68.324219 " fill-opacity="1" fill-rule="nonzero"/><path fill="#78019d" d="M 471.847656 144.707031 C 474.214844 147.328125 476.515625 150 478.761719 152.726562 C 481.003906 155.449219 483.183594 158.226562 485.296875 161.050781 C 487.414062 163.875 489.464844 166.746094 491.449219 169.667969 C 493.433594 172.585938 495.351562 175.546875 497.199219 178.554688 C 499.046875 181.5625 500.828125 184.609375 502.535156 187.695312 C 504.246094 190.785156 505.882812 193.910156 507.449219 197.070312 C 509.019531 200.234375 510.511719 203.429688 511.933594 206.664062 C 513.351562 209.894531 514.699219 213.15625 515.96875 216.449219 C 517.242188 219.742188 518.4375 223.0625 519.554688 226.40625 C 520.675781 229.753906 521.71875 233.125 522.683594 236.519531 C 523.648438 239.917969 524.535156 243.332031 525.34375 246.765625 C 526.152344 250.203125 526.882812 253.65625 527.535156 257.125 C 528.183594 260.59375 528.757812 264.074219 529.25 267.570312 C 529.738281 271.066406 530.152344 274.570312 530.484375 278.082031 C 530.816406 281.597656 531.066406 285.117188 531.238281 288.644531 C 531.40625 292.167969 531.496094 295.695312 531.507812 299.226562 C 531.515625 302.753906 531.445312 306.28125 531.292969 309.808594 C 531.140625 313.335938 530.90625 316.855469 530.59375 320.371094 C 530.28125 323.886719 529.886719 327.394531 529.414062 330.890625 C 528.941406 334.390625 528.386719 337.875 527.753906 341.347656 C 527.121094 344.820312 526.410156 348.273438 525.617188 351.714844 C 524.828125 355.152344 523.957031 358.574219 523.011719 361.972656 C 522.0625 365.375 521.039062 368.75 519.9375 372.105469 C 518.835938 375.457031 517.65625 378.78125 516.402344 382.082031 C 515.148438 385.382812 513.820312 388.652344 512.417969 391.890625 C 511.015625 395.128906 509.535156 398.332031 507.988281 401.503906 C 506.4375 404.675781 504.816406 407.808594 503.121094 410.90625 C 501.429688 414 499.664062 417.058594 497.832031 420.074219 C 496 423.089844 494.097656 426.0625 492.128906 428.992188 C 490.160156 431.921875 488.125 434.804688 486.023438 437.640625 C 483.921875 440.476562 481.757812 443.261719 479.527344 446 C 477.300781 448.738281 475.011719 451.421875 472.660156 454.054688 C 470.308594 456.6875 467.898438 459.261719 465.429688 461.785156 C 462.960938 464.308594 460.433594 466.773438 457.851562 469.179688 C 455.269531 471.585938 452.632812 473.929688 449.945312 476.21875 C 447.257812 478.503906 444.515625 480.726562 441.726562 482.886719 C 438.933594 485.046875 436.097656 487.144531 433.210938 489.175781 C 430.324219 491.207031 427.390625 493.167969 424.414062 495.066406 C 421.4375 496.964844 418.417969 498.792969 415.359375 500.550781 C 412.300781 502.308594 409.199219 503.996094 406.0625 505.613281 C 402.925781 507.230469 399.753906 508.773438 396.546875 510.246094 C 393.335938 511.71875 390.097656 513.117188 386.824219 514.441406 C 383.554688 515.765625 380.253906 517.011719 376.925781 518.183594 C 373.59375 519.359375 370.242188 520.453125 366.863281 521.472656 C 363.484375 522.492188 360.082031 523.433594 356.660156 524.296875 C 353.238281 525.164062 349.796875 525.949219 346.339844 526.652344 C 342.882812 527.359375 339.410156 527.988281 335.921875 528.535156 C 332.433594 529.082031 328.9375 529.550781 325.429688 529.9375 C 321.921875 530.324219 318.40625 530.632812 314.882812 530.859375 C 311.363281 531.085938 307.835938 531.234375 304.308594 531.300781 C 300.777344 531.363281 297.25 531.347656 293.722656 531.253906 C 290.191406 531.15625 286.667969 530.980469 283.148438 530.726562 C 279.628906 530.46875 276.117188 530.128906 272.613281 529.714844 C 269.105469 529.296875 265.613281 528.796875 262.132812 528.222656 C 258.648438 527.644531 255.183594 526.988281 251.730469 526.25 C 248.277344 525.515625 244.84375 524.699219 241.429688 523.808594 C 238.015625 522.914062 234.625 521.945312 231.253906 520.894531 C 227.882812 519.847656 224.539062 518.722656 221.21875 517.523438 C 217.898438 516.320312 214.609375 515.042969 211.351562 513.691406 C 208.089844 512.339844 204.863281 510.917969 201.667969 509.417969 C 198.472656 507.917969 195.3125 506.347656 192.1875 504.703125 C 189.066406 503.058594 185.980469 501.34375 182.933594 499.558594 C 179.890625 497.777344 176.886719 495.921875 173.925781 494 C 170.96875 492.078125 168.050781 490.089844 165.183594 488.035156 C 162.3125 485.976562 159.492188 483.859375 156.71875 481.675781 C 153.949219 479.488281 151.226562 477.242188 148.558594 474.933594 C 145.886719 472.625 143.273438 470.257812 140.710938 467.828125 C 138.148438 465.398438 135.644531 462.914062 133.199219 460.371094 C 130.75 457.828125 128.363281 455.230469 126.035156 452.578125 C 123.703125 449.925781 121.4375 447.222656 119.234375 444.464844 C 117.027344 441.710938 114.886719 438.90625 112.808594 436.050781 C 110.734375 433.195312 108.722656 430.296875 106.777344 427.351562 C 104.835938 424.40625 102.957031 421.417969 101.152344 418.386719 C 99.34375 415.351562 97.605469 412.28125 95.941406 409.171875 C 94.273438 406.058594 92.675781 402.910156 91.15625 399.726562 C 89.632812 396.542969 88.183594 393.328125 86.804688 390.078125 C 85.429688 386.828125 84.128906 383.546875 82.902344 380.234375 C 81.679688 376.925781 80.527344 373.589844 79.457031 370.226562 C 78.382812 366.867188 77.386719 363.480469 76.46875 360.074219 C 75.550781 356.664062 74.710938 353.238281 73.949219 349.789062 C 73.1875 346.34375 72.503906 342.882812 71.898438 339.40625 C 71.296875 335.925781 70.773438 332.4375 70.328125 328.9375 C 69.886719 325.433594 69.523438 321.925781 69.238281 318.40625 C 68.957031 314.886719 68.753906 311.367188 68.632812 307.839844 C 68.507812 304.3125 68.46875 300.78125 68.507812 297.253906 C 68.546875 293.722656 68.667969 290.199219 68.867188 286.671875 C 69.066406 283.148438 69.347656 279.632812 69.710938 276.121094 C 70.070312 272.609375 70.511719 269.109375 71.035156 265.617188 C 71.554688 262.128906 72.15625 258.652344 72.839844 255.1875 C 73.519531 251.722656 74.277344 248.277344 75.117188 244.851562 C 75.953125 241.421875 76.871094 238.015625 77.863281 234.628906 C 78.859375 231.242188 79.929688 227.878906 81.078125 224.539062 C 82.226562 221.203125 83.449219 217.894531 84.75 214.613281 C 86.046875 211.328125 87.421875 208.078125 88.871094 204.859375 C 90.316406 201.640625 91.839844 198.457031 93.429688 195.308594 C 95.023438 192.160156 96.691406 189.046875 98.425781 185.976562 L 300 299.832031 Z M 471.847656 144.707031 " fill-opacity="1" fill-rule="nonzero"/><path fill="#630a83" d="M 98.425781 185.976562 C 102.21875 179.261719 106.335938 172.75 110.777344 166.449219 C 115.222656 160.144531 119.96875 154.082031 125.015625 148.25 C 130.066406 142.421875 135.394531 136.859375 140.996094 131.5625 C 146.601562 126.269531 152.457031 121.265625 158.5625 116.554688 C 164.667969 111.84375 170.992188 107.445312 177.535156 103.367188 C 184.082031 99.289062 190.8125 95.546875 197.730469 92.140625 C 204.648438 88.730469 211.71875 85.679688 218.941406 82.980469 C 226.164062 80.277344 233.503906 77.945312 240.960938 75.980469 L 300 299.832031 Z M 98.425781 185.976562 " fill-opacity="1" fill-rule="nonzero"/><path fill="#9e19f0" d="M 240.960938 75.980469 C 260.300781 70.878906 279.972656 68.328125 299.976562 68.324219 L 300 299.832031 Z M 240.960938 75.980469 " fill-opacity="1" fill-rule="nonzero"/><g fill="#000000" fill-opacity="1"><g transform="translate(313.384032, 554.694732)"><g><path d="M 1.796875 0 L 1.796875 -13.0625 L 3.3125 -13.0625 L 3.3125 -1.375 L 9.078125 -1.375 L 9.078125 0 Z M 1.796875 0 "/></g></g></g><g fill="#000000" fill-opacity="1"><g transform="translate(322.871841, 554.694732)"><g><path d="M 5.8125 0 L 4.296875 0 L 4.296875 -11.71875 L 0.15625 -11.71875 L 0.15625 -13.0625 L 9.953125 -13.0625 L 9.953125 -11.71875 L 5.8125 -11.71875 Z M 5.8125 0 "/></g></g></g><g fill="#000000" fill-opacity="1"><g transform="translate(332.984436, 554.694732)"><g><path d="M 9.078125 0 L 1.796875 0 L 1.796875 -13.0625 L 9.078125 -13.0625 L 9.078125 -11.71875 L 3.3125 -11.71875 L 3.3125 -7.5 L 8.734375 -7.5 L 8.734375 -6.171875 L 3.3125 -6.171875 L 3.3125 -1.359375 L 9.078125 -1.359375 Z M 9.078125 0 "/></g></g></g><g fill="#000000" fill-opacity="1"><g transform="translate(303.014434, 576.675864)"><g><path d="M 1.046875 -5.578125 C 1.046875 -8.148438 1.539062 -10.070312 2.53125 -11.34375 C 3.53125 -12.613281 5.007812 -13.25 6.96875 -13.25 C 7.644531 -13.25 8.175781 -13.191406 8.5625 -13.078125 L 8.5625 -11.796875 C 8.101562 -11.953125 7.578125 -12.03125 6.984375 -12.03125 C 5.585938 -12.03125 4.519531 -11.59375 3.78125 -10.71875 C 3.039062 -9.84375 2.632812 -8.472656 2.5625 -6.609375 L 2.671875 -6.609375 C 3.328125 -7.628906 4.363281 -8.140625 5.78125 -8.140625 C 6.957031 -8.140625 7.878906 -7.785156 8.546875 -7.078125 C 9.222656 -6.367188 9.5625 -5.40625 9.5625 -4.1875 C 9.5625 -2.832031 9.191406 -1.765625 8.453125 -0.984375 C 7.710938 -0.210938 6.710938 0.171875 5.453125 0.171875 C 4.097656 0.171875 3.023438 -0.332031 2.234375 -1.34375 C 1.441406 -2.363281 1.046875 -3.773438 1.046875 -5.578125 Z M 5.4375 -1.078125 C 6.28125 -1.078125 6.9375 -1.34375 7.40625 -1.875 C 7.875 -2.414062 8.109375 -3.1875 8.109375 -4.1875 C 8.109375 -5.050781 7.890625 -5.726562 7.453125 -6.21875 C 7.015625 -6.71875 6.363281 -6.96875 5.5 -6.96875 C 4.96875 -6.96875 4.476562 -6.859375 4.03125 -6.640625 C 3.582031 -6.421875 3.222656 -6.113281 2.953125 -5.71875 C 2.691406 -5.332031 2.5625 -4.929688 2.5625 -4.515625 C 2.5625 -3.898438 2.679688 -3.328125 2.921875 -2.796875 C 3.160156 -2.273438 3.5 -1.859375 3.9375 -1.546875 C 4.375 -1.234375 4.875 -1.078125 5.4375 -1.078125 Z M 5.4375 -1.078125 "/></g></g></g><g fill="#000000" fill-opacity="1"><g transform="translate(313.466198, 576.675864)"><g><path d="M 9.484375 -7.484375 C 9.484375 -2.378906 7.503906 0.171875 3.546875 0.171875 C 2.859375 0.171875 2.3125 0.113281 1.90625 0 L 1.90625 -1.28125 C 2.382812 -1.125 2.925781 -1.046875 3.53125 -1.046875 C 4.957031 -1.046875 6.035156 -1.488281 6.765625 -2.375 C 7.492188 -3.257812 7.890625 -4.613281 7.953125 -6.4375 L 7.859375 -6.4375 C 7.523438 -5.945312 7.085938 -5.570312 6.546875 -5.3125 C 6.003906 -5.050781 5.394531 -4.921875 4.71875 -4.921875 C 3.5625 -4.921875 2.644531 -5.265625 1.96875 -5.953125 C 1.289062 -6.648438 0.953125 -7.617188 0.953125 -8.859375 C 0.953125 -10.210938 1.328125 -11.28125 2.078125 -12.0625 C 2.835938 -12.851562 3.835938 -13.25 5.078125 -13.25 C 5.972656 -13.25 6.75 -13.019531 7.40625 -12.5625 C 8.070312 -12.101562 8.582031 -11.4375 8.9375 -10.5625 C 9.300781 -9.695312 9.484375 -8.671875 9.484375 -7.484375 Z M 5.078125 -11.984375 C 4.234375 -11.984375 3.578125 -11.707031 3.109375 -11.15625 C 2.640625 -10.613281 2.40625 -9.851562 2.40625 -8.875 C 2.40625 -8.007812 2.617188 -7.332031 3.046875 -6.84375 C 3.484375 -6.351562 4.140625 -6.109375 5.015625 -6.109375 C 5.554688 -6.109375 6.050781 -6.21875 6.5 -6.4375 C 6.957031 -6.65625 7.316406 -6.957031 7.578125 -7.34375 C 7.847656 -7.726562 7.984375 -8.128906 7.984375 -8.546875 C 7.984375 -9.171875 7.859375 -9.742188 7.609375 -10.265625 C 7.367188 -10.796875 7.03125 -11.210938 6.59375 -11.515625 C 6.15625 -11.828125 5.648438 -11.984375 5.078125 -11.984375 Z M 5.078125 -11.984375 "/></g></g></g><g fill="#000000" fill-opacity="1"><g transform="translate(323.917962, 576.675864)"><g><path d="M 1.359375 -0.953125 C 1.359375 -1.347656 1.445312 -1.644531 1.625 -1.84375 C 1.8125 -2.050781 2.070312 -2.15625 2.40625 -2.15625 C 2.757812 -2.15625 3.03125 -2.050781 3.21875 -1.84375 C 3.414062 -1.644531 3.515625 -1.347656 3.515625 -0.953125 C 3.515625 -0.554688 3.414062 -0.253906 3.21875 -0.046875 C 3.019531 0.160156 2.75 0.265625 2.40625 0.265625 C 2.101562 0.265625 1.851562 0.171875 1.65625 -0.015625 C 1.457031 -0.203125 1.359375 -0.515625 1.359375 -0.953125 Z M 1.359375 -0.953125 "/></g></g></g><g fill="#000000" fill-opacity="1"><g transform="translate(328.782361, 576.675864)"><g><path d="M 9.484375 -7.484375 C 9.484375 -2.378906 7.503906 0.171875 3.546875 0.171875 C 2.859375 0.171875 2.3125 0.113281 1.90625 0 L 1.90625 -1.28125 C 2.382812 -1.125 2.925781 -1.046875 3.53125 -1.046875 C 4.957031 -1.046875 6.035156 -1.488281 6.765625 -2.375 C 7.492188 -3.257812 7.890625 -4.613281 7.953125 -6.4375 L 7.859375 -6.4375 C 7.523438 -5.945312 7.085938 -5.570312 6.546875 -5.3125 C 6.003906 -5.050781 5.394531 -4.921875 4.71875 -4.921875 C 3.5625 -4.921875 2.644531 -5.265625 1.96875 -5.953125 C 1.289062 -6.648438 0.953125 -7.617188 0.953125 -8.859375 C 0.953125 -10.210938 1.328125 -11.28125 2.078125 -12.0625 C 2.835938 -12.851562 3.835938 -13.25 5.078125 -13.25 C 5.972656 -13.25 6.75 -13.019531 7.40625 -12.5625 C 8.070312 -12.101562 8.582031 -11.4375 8.9375 -10.5625 C 9.300781 -9.695312 9.484375 -8.671875 9.484375 -7.484375 Z M 5.078125 -11.984375 C 4.234375 -11.984375 3.578125 -11.707031 3.109375 -11.15625 C 2.640625 -10.613281 2.40625 -9.851562 2.40625 -8.875 C 2.40625 -8.007812 2.617188 -7.332031 3.046875 -6.84375 C 3.484375 -6.351562 4.140625 -6.109375 5.015625 -6.109375 C 5.554688 -6.109375 6.050781 -6.21875 6.5 -6.4375 C 6.957031 -6.65625 7.316406 -6.957031 7.578125 -7.34375 C 7.847656 -7.726562 7.984375 -8.128906 7.984375 -8.546875 C 7.984375 -9.171875 7.859375 -9.742188 7.609375 -10.265625 C 7.367188 -10.796875 7.03125 -11.210938 6.59375 -11.515625 C 6.15625 -11.828125 5.648438 -11.984375 5.078125 -11.984375 Z M 5.078125 -11.984375 "/></g></g></g><g fill="#000000" fill-opacity="1"><g transform="translate(339.234125, 576.675864)"><g><path d="M 2.15625 -9.171875 C 2.15625 -8.148438 2.265625 -7.382812 2.484375 -6.875 C 2.710938 -6.375 3.070312 -6.125 3.5625 -6.125 C 4.539062 -6.125 5.03125 -7.140625 5.03125 -9.171875 C 5.03125 -11.179688 4.539062 -12.1875 3.5625 -12.1875 C 3.070312 -12.1875 2.710938 -11.9375 2.484375 -11.4375 C 2.265625 -10.9375 2.15625 -10.179688 2.15625 -9.171875 Z M 6.25 -9.171875 C 6.25 -7.804688 6.019531 -6.773438 5.5625 -6.078125 C 5.113281 -5.390625 4.445312 -5.046875 3.5625 -5.046875 C 2.726562 -5.046875 2.078125 -5.398438 1.609375 -6.109375 C 1.148438 -6.816406 0.921875 -7.835938 0.921875 -9.171875 C 0.921875 -10.515625 1.144531 -11.53125 1.59375 -12.21875 C 2.039062 -12.90625 2.695312 -13.25 3.5625 -13.25 C 4.425781 -13.25 5.085938 -12.894531 5.546875 -12.1875 C 6.015625 -11.476562 6.25 -10.472656 6.25 -9.171875 Z M 10.03125 -3.9375 C 10.03125 -2.914062 10.140625 -2.148438 10.359375 -1.640625 C 10.578125 -1.140625 10.9375 -0.890625 11.4375 -0.890625 C 11.9375 -0.890625 12.304688 -1.140625 12.546875 -1.640625 C 12.785156 -2.140625 12.90625 -2.90625 12.90625 -3.9375 C 12.90625 -4.945312 12.785156 -5.695312 12.546875 -6.1875 C 12.304688 -6.6875 11.9375 -6.9375 11.4375 -6.9375 C 10.9375 -6.9375 10.578125 -6.6875 10.359375 -6.1875 C 10.140625 -5.695312 10.03125 -4.945312 10.03125 -3.9375 Z M 14.125 -3.9375 C 14.125 -2.582031 13.894531 -1.554688 13.4375 -0.859375 C 12.976562 -0.171875 12.3125 0.171875 11.4375 0.171875 C 10.59375 0.171875 9.941406 -0.179688 9.484375 -0.890625 C 9.023438 -1.597656 8.796875 -2.613281 8.796875 -3.9375 C 8.796875 -5.28125 9.015625 -6.296875 9.453125 -6.984375 C 9.898438 -7.671875 10.5625 -8.015625 11.4375 -8.015625 C 12.28125 -8.015625 12.9375 -7.664062 13.40625 -6.96875 C 13.882812 -6.269531 14.125 -5.257812 14.125 -3.9375 Z M 11.8125 -13.0625 L 4.578125 0 L 3.265625 0 L 10.5 -13.0625 Z M 11.8125 -13.0625 "/></g></g></g><g fill="#000000" fill-opacity="1"><g transform="translate(395.291794, 51.021671)"><g><path d="M 12 0 L 10.265625 0 L 3.125 -10.96875 L 3.0625 -10.96875 C 3.15625 -9.675781 3.203125 -8.492188 3.203125 -7.421875 L 3.203125 0 L 1.796875 0 L 1.796875 -13.0625 L 3.515625 -13.0625 L 10.625 -2.140625 L 10.703125 -2.140625 C 10.691406 -2.304688 10.664062 -2.820312 10.625 -3.6875 C 10.582031 -4.5625 10.566406 -5.1875 10.578125 -5.5625 L 10.578125 -13.0625 L 12 -13.0625 Z M 12 0 "/></g></g></g><g fill="#000000" fill-opacity="1"><g transform="translate(409.07277, 51.021671)"><g><path d="M 3.3125 -5.4375 L 3.3125 0 L 1.796875 0 L 1.796875 -13.0625 L 5.375 -13.0625 C 6.976562 -13.0625 8.160156 -12.753906 8.921875 -12.140625 C 9.691406 -11.523438 10.078125 -10.601562 10.078125 -9.375 C 10.078125 -7.644531 9.203125 -6.476562 7.453125 -5.875 L 11 0 L 9.203125 0 L 6.046875 -5.4375 Z M 3.3125 -6.734375 L 5.390625 -6.734375 C 6.460938 -6.734375 7.25 -6.945312 7.75 -7.375 C 8.25 -7.800781 8.5 -8.441406 8.5 -9.296875 C 8.5 -10.160156 8.242188 -10.78125 7.734375 -11.15625 C 7.234375 -11.539062 6.414062 -11.734375 5.28125 -11.734375 L 3.3125 -11.734375 Z M 3.3125 -6.734375 "/></g></g></g><g fill="#000000" fill-opacity="1"><g transform="translate(382.595066, 73.00281)"><g><path d="M 6.390625 0 L 4.9375 0 L 4.9375 -9.3125 C 4.9375 -10.082031 4.960938 -10.8125 5.015625 -11.5 C 4.890625 -11.375 4.75 -11.242188 4.59375 -11.109375 C 4.4375 -10.972656 3.726562 -10.394531 2.46875 -9.375 L 1.671875 -10.390625 L 5.140625 -13.0625 L 6.390625 -13.0625 Z M 6.390625 0 "/></g></g></g><g fill="#000000" fill-opacity="1"><g transform="translate(393.04683, 73.00281)"><g><path d="M 8.984375 -9.984375 C 8.984375 -9.148438 8.75 -8.46875 8.28125 -7.9375 C 7.8125 -7.40625 7.148438 -7.050781 6.296875 -6.875 L 6.296875 -6.8125 C 7.347656 -6.675781 8.125 -6.335938 8.625 -5.796875 C 9.132812 -5.265625 9.390625 -4.566406 9.390625 -3.703125 C 9.390625 -2.453125 8.957031 -1.492188 8.09375 -0.828125 C 7.226562 -0.160156 6 0.171875 4.40625 0.171875 C 3.71875 0.171875 3.085938 0.117188 2.515625 0.015625 C 1.941406 -0.0859375 1.382812 -0.269531 0.84375 -0.53125 L 0.84375 -1.9375 C 1.40625 -1.65625 2.003906 -1.441406 2.640625 -1.296875 C 3.285156 -1.148438 3.894531 -1.078125 4.46875 -1.078125 C 6.726562 -1.078125 7.859375 -1.960938 7.859375 -3.734375 C 7.859375 -5.316406 6.613281 -6.109375 4.125 -6.109375 L 2.828125 -6.109375 L 2.828125 -7.390625 L 4.140625 -7.390625 C 5.160156 -7.390625 5.96875 -7.613281 6.5625 -8.0625 C 7.15625 -8.507812 7.453125 -9.132812 7.453125 -9.9375 C 7.453125 -10.570312 7.234375 -11.070312 6.796875 -11.4375 C 6.359375 -11.800781 5.765625 -11.984375 5.015625 -11.984375 C 4.441406 -11.984375 3.898438 -11.90625 3.390625 -11.75 C 2.890625 -11.59375 2.3125 -11.304688 1.65625 -10.890625 L 0.90625 -11.890625 C 1.445312 -12.316406 2.066406 -12.648438 2.765625 -12.890625 C 3.460938 -13.128906 4.195312 -13.25 4.96875 -13.25 C 6.238281 -13.25 7.222656 -12.957031 7.921875 -12.375 C 8.628906 -11.789062 8.984375 -10.992188 8.984375 -9.984375 Z M 8.984375 -9.984375 "/></g></g></g><g fill="#000000" fill-opacity="1"><g transform="translate(403.498594, 73.00281)"><g><path d="M 1.359375 -0.953125 C 1.359375 -1.347656 1.445312 -1.644531 1.625 -1.84375 C 1.8125 -2.050781 2.070312 -2.15625 2.40625 -2.15625 C 2.757812 -2.15625 3.03125 -2.050781 3.21875 -1.84375 C 3.414062 -1.644531 3.515625 -1.347656 3.515625 -0.953125 C 3.515625 -0.554688 3.414062 -0.253906 3.21875 -0.046875 C 3.019531 0.160156 2.75 0.265625 2.40625 0.265625 C 2.101562 0.265625 1.851562 0.171875 1.65625 -0.015625 C 1.457031 -0.203125 1.359375 -0.515625 1.359375 -0.953125 Z M 1.359375 -0.953125 "/></g></g></g><g fill="#000000" fill-opacity="1"><g transform="translate(408.362993, 73.00281)"><g><path d="M 8.984375 -9.984375 C 8.984375 -9.148438 8.75 -8.46875 8.28125 -7.9375 C 7.8125 -7.40625 7.148438 -7.050781 6.296875 -6.875 L 6.296875 -6.8125 C 7.347656 -6.675781 8.125 -6.335938 8.625 -5.796875 C 9.132812 -5.265625 9.390625 -4.566406 9.390625 -3.703125 C 9.390625 -2.453125 8.957031 -1.492188 8.09375 -0.828125 C 7.226562 -0.160156 6 0.171875 4.40625 0.171875 C 3.71875 0.171875 3.085938 0.117188 2.515625 0.015625 C 1.941406 -0.0859375 1.382812 -0.269531 0.84375 -0.53125 L 0.84375 -1.9375 C 1.40625 -1.65625 2.003906 -1.441406 2.640625 -1.296875 C 3.285156 -1.148438 3.894531 -1.078125 4.46875 -1.078125 C 6.726562 -1.078125 7.859375 -1.960938 7.859375 -3.734375 C 7.859375 -5.316406 6.613281 -6.109375 4.125 -6.109375 L 2.828125 -6.109375 L 2.828125 -7.390625 L 4.140625 -7.390625 C 5.160156 -7.390625 5.96875 -7.613281 6.5625 -8.0625 C 7.15625 -8.507812 7.453125 -9.132812 7.453125 -9.9375 C 7.453125 -10.570312 7.234375 -11.070312 6.796875 -11.4375 C 6.359375 -11.800781 5.765625 -11.984375 5.015625 -11.984375 C 4.441406 -11.984375 3.898438 -11.90625 3.390625 -11.75 C 2.890625 -11.59375 2.3125 -11.304688 1.65625 -10.890625 L 0.90625 -11.890625 C 1.445312 -12.316406 2.066406 -12.648438 2.765625 -12.890625 C 3.460938 -13.128906 4.195312 -13.25 4.96875 -13.25 C 6.238281 -13.25 7.222656 -12.957031 7.921875 -12.375 C 8.628906 -11.789062 8.984375 -10.992188 8.984375 -9.984375 Z M 8.984375 -9.984375 "/></g></g></g><g fill="#000000" fill-opacity="1"><g transform="translate(418.814757, 73.00281)"><g><path d="M 2.15625 -9.171875 C 2.15625 -8.148438 2.265625 -7.382812 2.484375 -6.875 C 2.710938 -6.375 3.070312 -6.125 3.5625 -6.125 C 4.539062 -6.125 5.03125 -7.140625 5.03125 -9.171875 C 5.03125 -11.179688 4.539062 -12.1875 3.5625 -12.1875 C 3.070312 -12.1875 2.710938 -11.9375 2.484375 -11.4375 C 2.265625 -10.9375 2.15625 -10.179688 2.15625 -9.171875 Z M 6.25 -9.171875 C 6.25 -7.804688 6.019531 -6.773438 5.5625 -6.078125 C 5.113281 -5.390625 4.445312 -5.046875 3.5625 -5.046875 C 2.726562 -5.046875 2.078125 -5.398438 1.609375 -6.109375 C 1.148438 -6.816406 0.921875 -7.835938 0.921875 -9.171875 C 0.921875 -10.515625 1.144531 -11.53125 1.59375 -12.21875 C 2.039062 -12.90625 2.695312 -13.25 3.5625 -13.25 C 4.425781 -13.25 5.085938 -12.894531 5.546875 -12.1875 C 6.015625 -11.476562 6.25 -10.472656 6.25 -9.171875 Z M 10.03125 -3.9375 C 10.03125 -2.914062 10.140625 -2.148438 10.359375 -1.640625 C 10.578125 -1.140625 10.9375 -0.890625 11.4375 -0.890625 C 11.9375 -0.890625 12.304688 -1.140625 12.546875 -1.640625 C 12.785156 -2.140625 12.90625 -2.90625 12.90625 -3.9375 C 12.90625 -4.945312 12.785156 -5.695312 12.546875 -6.1875 C 12.304688 -6.6875 11.9375 -6.9375 11.4375 -6.9375 C 10.9375 -6.9375 10.578125 -6.6875 10.359375 -6.1875 C 10.140625 -5.695312 10.03125 -4.945312 10.03125 -3.9375 Z M 14.125 -3.9375 C 14.125 -2.582031 13.894531 -1.554688 13.4375 -0.859375 C 12.976562 -0.171875 12.3125 0.171875 11.4375 0.171875 C 10.59375 0.171875 9.941406 -0.179688 9.484375 -0.890625 C 9.023438 -1.597656 8.796875 -2.613281 8.796875 -3.9375 C 8.796875 -5.28125 9.015625 -6.296875 9.453125 -6.984375 C 9.898438 -7.671875 10.5625 -8.015625 11.4375 -8.015625 C 12.28125 -8.015625 12.9375 -7.664062 13.40625 -6.96875 C 13.882812 -6.269531 14.125 -5.257812 14.125 -3.9375 Z M 11.8125 -13.0625 L 4.578125 0 L 3.265625 0 L 10.5 -13.0625 Z M 11.8125 -13.0625 "/></g></g></g><g fill="#000000" fill-opacity="1"><g transform="translate(96.09273, 76.427189)"><g><path d="M 13.203125 0 L 11.6875 0 L 9.0625 -8.75 C 8.9375 -9.132812 8.796875 -9.617188 8.640625 -10.203125 C 8.484375 -10.796875 8.398438 -11.15625 8.390625 -11.28125 C 8.265625 -10.488281 8.054688 -9.625 7.765625 -8.6875 L 5.21875 0 L 3.71875 0 L 0.234375 -13.0625 L 1.84375 -13.0625 L 3.90625 -5 C 4.195312 -3.863281 4.40625 -2.835938 4.53125 -1.921875 C 4.695312 -3.015625 4.9375 -4.082031 5.25 -5.125 L 7.59375 -13.0625 L 9.203125 -13.0625 L 11.65625 -5.046875 C 11.945312 -4.117188 12.1875 -3.078125 12.375 -1.921875 C 12.488281 -2.765625 12.707031 -3.796875 13.03125 -5.015625 L 15.078125 -13.0625 L 16.6875 -13.0625 Z M 13.203125 0 "/></g></g></g><g fill="#000000" fill-opacity="1"><g transform="translate(113.015483, 76.427189)"><g><path d="M 7.390625 -11.890625 C 5.953125 -11.890625 4.816406 -11.410156 3.984375 -10.453125 C 3.160156 -9.492188 2.75 -8.1875 2.75 -6.53125 C 2.75 -4.820312 3.144531 -3.5 3.9375 -2.5625 C 4.738281 -1.632812 5.882812 -1.171875 7.375 -1.171875 C 8.28125 -1.171875 9.316406 -1.332031 10.484375 -1.65625 L 10.484375 -0.328125 C 9.578125 0.00390625 8.460938 0.171875 7.140625 0.171875 C 5.210938 0.171875 3.722656 -0.410156 2.671875 -1.578125 C 1.628906 -2.742188 1.109375 -4.398438 1.109375 -6.546875 C 1.109375 -7.890625 1.359375 -9.066406 1.859375 -10.078125 C 2.367188 -11.097656 3.097656 -11.878906 4.046875 -12.421875 C 4.992188 -12.972656 6.113281 -13.25 7.40625 -13.25 C 8.78125 -13.25 9.976562 -13 11 -12.5 L 10.359375 -11.1875 C 9.367188 -11.65625 8.378906 -11.890625 7.390625 -11.890625 Z M 7.390625 -11.890625 "/></g></g></g><g fill="#000000" fill-opacity="1"><g transform="translate(124.547233, 76.427189)"><g><path d="M 12.21875 -6.65625 C 12.21875 -4.5 11.628906 -2.847656 10.453125 -1.703125 C 9.285156 -0.566406 7.601562 0 5.40625 0 L 1.796875 0 L 1.796875 -13.0625 L 5.796875 -13.0625 C 7.828125 -13.0625 9.40625 -12.5 10.53125 -11.375 C 11.65625 -10.25 12.21875 -8.675781 12.21875 -6.65625 Z M 10.609375 -6.609375 C 10.609375 -8.304688 10.179688 -9.585938 9.328125 -10.453125 C 8.472656 -11.316406 7.203125 -11.75 5.515625 -11.75 L 3.3125 -11.75 L 3.3125 -1.3125 L 5.15625 -1.3125 C 6.96875 -1.3125 8.328125 -1.753906 9.234375 -2.640625 C 10.148438 -3.535156 10.609375 -4.859375 10.609375 -6.609375 Z M 10.609375 -6.609375 "/></g></g></g><g fill="#000000" fill-opacity="1"><g transform="translate(137.873009, 76.427189)"><g><path d="M 7.578125 0 L 3.140625 -11.578125 L 3.078125 -11.578125 C 3.160156 -10.660156 3.203125 -9.570312 3.203125 -8.3125 L 3.203125 0 L 1.796875 0 L 1.796875 -13.0625 L 4.078125 -13.0625 L 8.21875 -2.28125 L 8.296875 -2.28125 L 12.46875 -13.0625 L 14.734375 -13.0625 L 14.734375 0 L 13.21875 0 L 13.21875 -8.421875 C 13.21875 -9.378906 13.257812 -10.425781 13.34375 -11.5625 L 13.265625 -11.5625 L 8.796875 0 Z M 7.578125 0 "/></g></g></g><g fill="#000000" fill-opacity="1"><g transform="translate(154.376264, 76.427189)"><g><path d="M 10 0 L 8.375 -4.15625 L 3.140625 -4.15625 L 1.53125 0 L 0 0 L 5.15625 -13.109375 L 6.4375 -13.109375 L 11.578125 0 Z M 7.90625 -5.515625 L 6.390625 -9.5625 C 6.191406 -10.082031 5.988281 -10.710938 5.78125 -11.453125 C 5.644531 -10.878906 5.457031 -10.25 5.21875 -9.5625 L 3.6875 -5.515625 Z M 7.90625 -5.515625 "/></g></g></g><g fill="#000000" fill-opacity="1"><g transform="translate(105.003353, 98.40832)"><g><path d="M 6.390625 0 L 4.9375 0 L 4.9375 -9.3125 C 4.9375 -10.082031 4.960938 -10.8125 5.015625 -11.5 C 4.890625 -11.375 4.75 -11.242188 4.59375 -11.109375 C 4.4375 -10.972656 3.726562 -10.394531 2.46875 -9.375 L 1.671875 -10.390625 L 5.140625 -13.0625 L 6.390625 -13.0625 Z M 6.390625 0 "/></g></g></g><g fill="#000000" fill-opacity="1"><g transform="translate(115.455117, 98.40832)"><g><path d="M 9.484375 0 L 0.890625 0 L 0.890625 -1.28125 L 4.328125 -4.734375 C 5.378906 -5.796875 6.070312 -6.550781 6.40625 -7 C 6.738281 -7.457031 6.988281 -7.898438 7.15625 -8.328125 C 7.320312 -8.753906 7.40625 -9.21875 7.40625 -9.71875 C 7.40625 -10.40625 7.191406 -10.953125 6.765625 -11.359375 C 6.347656 -11.773438 5.765625 -11.984375 5.015625 -11.984375 C 4.472656 -11.984375 3.957031 -11.890625 3.46875 -11.703125 C 2.988281 -11.523438 2.445312 -11.203125 1.84375 -10.734375 L 1.0625 -11.75 C 2.269531 -12.75 3.582031 -13.25 5 -13.25 C 6.21875 -13.25 7.175781 -12.929688 7.875 -12.296875 C 8.570312 -11.671875 8.921875 -10.832031 8.921875 -9.78125 C 8.921875 -8.945312 8.6875 -8.125 8.21875 -7.3125 C 7.757812 -6.507812 6.894531 -5.488281 5.625 -4.25 L 2.765625 -1.453125 L 2.765625 -1.375 L 9.484375 -1.375 Z M 9.484375 0 "/></g></g></g><g fill="#000000" fill-opacity="1"><g transform="translate(125.906881, 98.40832)"><g><path d="M 1.359375 -0.953125 C 1.359375 -1.347656 1.445312 -1.644531 1.625 -1.84375 C 1.8125 -2.050781 2.070312 -2.15625 2.40625 -2.15625 C 2.757812 -2.15625 3.03125 -2.050781 3.21875 -1.84375 C 3.414062 -1.644531 3.515625 -1.347656 3.515625 -0.953125 C 3.515625 -0.554688 3.414062 -0.253906 3.21875 -0.046875 C 3.019531 0.160156 2.75 0.265625 2.40625 0.265625 C 2.101562 0.265625 1.851562 0.171875 1.65625 -0.015625 C 1.457031 -0.203125 1.359375 -0.515625 1.359375 -0.953125 Z M 1.359375 -0.953125 "/></g></g></g><g fill="#000000" fill-opacity="1"><g transform="translate(130.77128, 98.40832)"><g><path d="M 2.546875 0 L 7.953125 -11.6875 L 0.84375 -11.6875 L 0.84375 -13.0625 L 9.53125 -13.0625 L 9.53125 -11.875 L 4.1875 0 Z M 2.546875 0 "/></g></g></g><g fill="#000000" fill-opacity="1"><g transform="translate(141.223044, 98.40832)"><g><path d="M 2.15625 -9.171875 C 2.15625 -8.148438 2.265625 -7.382812 2.484375 -6.875 C 2.710938 -6.375 3.070312 -6.125 3.5625 -6.125 C 4.539062 -6.125 5.03125 -7.140625 5.03125 -9.171875 C 5.03125 -11.179688 4.539062 -12.1875 3.5625 -12.1875 C 3.070312 -12.1875 2.710938 -11.9375 2.484375 -11.4375 C 2.265625 -10.9375 2.15625 -10.179688 2.15625 -9.171875 Z M 6.25 -9.171875 C 6.25 -7.804688 6.019531 -6.773438 5.5625 -6.078125 C 5.113281 -5.390625 4.445312 -5.046875 3.5625 -5.046875 C 2.726562 -5.046875 2.078125 -5.398438 1.609375 -6.109375 C 1.148438 -6.816406 0.921875 -7.835938 0.921875 -9.171875 C 0.921875 -10.515625 1.144531 -11.53125 1.59375 -12.21875 C 2.039062 -12.90625 2.695312 -13.25 3.5625 -13.25 C 4.425781 -13.25 5.085938 -12.894531 5.546875 -12.1875 C 6.015625 -11.476562 6.25 -10.472656 6.25 -9.171875 Z M 10.03125 -3.9375 C 10.03125 -2.914062 10.140625 -2.148438 10.359375 -1.640625 C 10.578125 -1.140625 10.9375 -0.890625 11.4375 -0.890625 C 11.9375 -0.890625 12.304688 -1.140625 12.546875 -1.640625 C 12.785156 -2.140625 12.90625 -2.90625 12.90625 -3.9375 C 12.90625 -4.945312 12.785156 -5.695312 12.546875 -6.1875 C 12.304688 -6.6875 11.9375 -6.9375 11.4375 -6.9375 C 10.9375 -6.9375 10.578125 -6.6875 10.359375 -6.1875 C 10.140625 -5.695312 10.03125 -4.945312 10.03125 -3.9375 Z M 14.125 -3.9375 C 14.125 -2.582031 13.894531 -1.554688 13.4375 -0.859375 C 12.976562 -0.171875 12.3125 0.171875 11.4375 0.171875 C 10.59375 0.171875 9.941406 -0.179688 9.484375 -0.890625 C 9.023438 -1.597656 8.796875 -2.613281 8.796875 -3.9375 C 8.796875 -5.28125 9.015625 -6.296875 9.453125 -6.984375 C 9.898438 -7.671875 10.5625 -8.015625 11.4375 -8.015625 C 12.28125 -8.015625 12.9375 -7.664062 13.40625 -6.96875 C 13.882812 -6.269531 14.125 -5.257812 14.125 -3.9375 Z M 11.8125 -13.0625 L 4.578125 0 L 3.265625 0 L 10.5 -13.0625 Z M 11.8125 -13.0625 "/></g></g></g><g fill="#000000" fill-opacity="1"><g transform="translate(246.500128, 36.44395)"><g><path d="M 7.546875 -6.84375 L 11.984375 -6.84375 L 11.984375 -0.484375 C 11.285156 -0.265625 10.578125 -0.101562 9.859375 0 C 9.148438 0.113281 8.328125 0.171875 7.390625 0.171875 C 5.410156 0.171875 3.867188 -0.410156 2.765625 -1.578125 C 1.660156 -2.753906 1.109375 -4.40625 1.109375 -6.53125 C 1.109375 -7.882812 1.378906 -9.070312 1.921875 -10.09375 C 2.472656 -11.113281 3.257812 -11.894531 4.28125 -12.4375 C 5.3125 -12.976562 6.515625 -13.25 7.890625 -13.25 C 9.285156 -13.25 10.582031 -12.992188 11.78125 -12.484375 L 11.1875 -11.140625 C 10.007812 -11.640625 8.878906 -11.890625 7.796875 -11.890625 C 6.203125 -11.890625 4.957031 -11.414062 4.0625 -10.46875 C 3.164062 -9.519531 2.71875 -8.207031 2.71875 -6.53125 C 2.71875 -4.769531 3.148438 -3.429688 4.015625 -2.515625 C 4.878906 -1.609375 6.144531 -1.15625 7.8125 -1.15625 C 8.71875 -1.15625 9.601562 -1.257812 10.46875 -1.46875 L 10.46875 -5.484375 L 7.546875 -5.484375 Z M 7.546875 -6.84375 "/></g></g></g><g fill="#000000" fill-opacity="1"><g transform="translate(259.808053, 36.44395)"><g><path d="M 9.171875 -3.46875 C 9.171875 -2.320312 8.753906 -1.425781 7.921875 -0.78125 C 7.085938 -0.144531 5.953125 0.171875 4.515625 0.171875 C 2.972656 0.171875 1.785156 -0.0234375 0.953125 -0.421875 L 0.953125 -1.890625 C 1.484375 -1.660156 2.0625 -1.476562 2.6875 -1.34375 C 3.320312 -1.21875 3.953125 -1.15625 4.578125 -1.15625 C 5.585938 -1.15625 6.347656 -1.347656 6.859375 -1.734375 C 7.367188 -2.117188 7.625 -2.648438 7.625 -3.328125 C 7.625 -3.785156 7.53125 -4.15625 7.34375 -4.4375 C 7.164062 -4.726562 6.863281 -4.992188 6.4375 -5.234375 C 6.019531 -5.484375 5.375 -5.765625 4.5 -6.078125 C 3.289062 -6.515625 2.421875 -7.03125 1.890625 -7.625 C 1.367188 -8.21875 1.109375 -8.992188 1.109375 -9.953125 C 1.109375 -10.960938 1.488281 -11.765625 2.25 -12.359375 C 3.007812 -12.953125 4.007812 -13.25 5.25 -13.25 C 6.550781 -13.25 7.742188 -13.007812 8.828125 -12.53125 L 8.359375 -11.21875 C 7.285156 -11.664062 6.238281 -11.890625 5.21875 -11.890625 C 4.414062 -11.890625 3.785156 -11.71875 3.328125 -11.375 C 2.878906 -11.03125 2.65625 -10.550781 2.65625 -9.9375 C 2.65625 -9.476562 2.738281 -9.101562 2.90625 -8.8125 C 3.070312 -8.53125 3.351562 -8.269531 3.75 -8.03125 C 4.144531 -7.789062 4.75 -7.523438 5.5625 -7.234375 C 6.9375 -6.742188 7.878906 -6.21875 8.390625 -5.65625 C 8.910156 -5.09375 9.171875 -4.363281 9.171875 -3.46875 Z M 9.171875 -3.46875 "/></g></g></g><g fill="#000000" fill-opacity="1"><g transform="translate(269.840318, 36.44395)"><g><path d="M 7.578125 0 L 3.140625 -11.578125 L 3.078125 -11.578125 C 3.160156 -10.660156 3.203125 -9.570312 3.203125 -8.3125 L 3.203125 0 L 1.796875 0 L 1.796875 -13.0625 L 4.078125 -13.0625 L 8.21875 -2.28125 L 8.296875 -2.28125 L 12.46875 -13.0625 L 14.734375 -13.0625 L 14.734375 0 L 13.21875 0 L 13.21875 -8.421875 C 13.21875 -9.378906 13.257812 -10.425781 13.34375 -11.5625 L 13.265625 -11.5625 L 8.796875 0 Z M 7.578125 0 "/></g></g></g><g fill="#000000" fill-opacity="1"><g transform="translate(246.403667, 58.425082)"><g><path d="M 10.09375 -3 L 8.15625 -3 L 8.15625 0 L 6.734375 0 L 6.734375 -3 L 0.390625 -3 L 0.390625 -4.296875 L 6.578125 -13.140625 L 8.15625 -13.140625 L 8.15625 -4.34375 L 10.09375 -4.34375 Z M 6.734375 -4.34375 L 6.734375 -8.6875 C 6.734375 -9.539062 6.765625 -10.503906 6.828125 -11.578125 L 6.75 -11.578125 C 6.46875 -11.003906 6.203125 -10.53125 5.953125 -10.15625 L 1.875 -4.34375 Z M 6.734375 -4.34375 "/></g></g></g><g fill="#000000" fill-opacity="1"><g transform="translate(256.85543, 58.425082)"><g><path d="M 1.359375 -0.953125 C 1.359375 -1.347656 1.445312 -1.644531 1.625 -1.84375 C 1.8125 -2.050781 2.070312 -2.15625 2.40625 -2.15625 C 2.757812 -2.15625 3.03125 -2.050781 3.21875 -1.84375 C 3.414062 -1.644531 3.515625 -1.347656 3.515625 -0.953125 C 3.515625 -0.554688 3.414062 -0.253906 3.21875 -0.046875 C 3.019531 0.160156 2.75 0.265625 2.40625 0.265625 C 2.101562 0.265625 1.851562 0.171875 1.65625 -0.015625 C 1.457031 -0.203125 1.359375 -0.515625 1.359375 -0.953125 Z M 1.359375 -0.953125 "/></g></g></g><g fill="#000000" fill-opacity="1"><g transform="translate(261.719829, 58.425082)"><g><path d="M 6.390625 0 L 4.9375 0 L 4.9375 -9.3125 C 4.9375 -10.082031 4.960938 -10.8125 5.015625 -11.5 C 4.890625 -11.375 4.75 -11.242188 4.59375 -11.109375 C 4.4375 -10.972656 3.726562 -10.394531 2.46875 -9.375 L 1.671875 -10.390625 L 5.140625 -13.0625 L 6.390625 -13.0625 Z M 6.390625 0 "/></g></g></g><g fill="#000000" fill-opacity="1"><g transform="translate(272.171593, 58.425082)"><g><path d="M 2.15625 -9.171875 C 2.15625 -8.148438 2.265625 -7.382812 2.484375 -6.875 C 2.710938 -6.375 3.070312 -6.125 3.5625 -6.125 C 4.539062 -6.125 5.03125 -7.140625 5.03125 -9.171875 C 5.03125 -11.179688 4.539062 -12.1875 3.5625 -12.1875 C 3.070312 -12.1875 2.710938 -11.9375 2.484375 -11.4375 C 2.265625 -10.9375 2.15625 -10.179688 2.15625 -9.171875 Z M 6.25 -9.171875 C 6.25 -7.804688 6.019531 -6.773438 5.5625 -6.078125 C 5.113281 -5.390625 4.445312 -5.046875 3.5625 -5.046875 C 2.726562 -5.046875 2.078125 -5.398438 1.609375 -6.109375 C 1.148438 -6.816406 0.921875 -7.835938 0.921875 -9.171875 C 0.921875 -10.515625 1.144531 -11.53125 1.59375 -12.21875 C 2.039062 -12.90625 2.695312 -13.25 3.5625 -13.25 C 4.425781 -13.25 5.085938 -12.894531 5.546875 -12.1875 C 6.015625 -11.476562 6.25 -10.472656 6.25 -9.171875 Z M 10.03125 -3.9375 C 10.03125 -2.914062 10.140625 -2.148438 10.359375 -1.640625 C 10.578125 -1.140625 10.9375 -0.890625 11.4375 -0.890625 C 11.9375 -0.890625 12.304688 -1.140625 12.546875 -1.640625 C 12.785156 -2.140625 12.90625 -2.90625 12.90625 -3.9375 C 12.90625 -4.945312 12.785156 -5.695312 12.546875 -6.1875 C 12.304688 -6.6875 11.9375 -6.9375 11.4375 -6.9375 C 10.9375 -6.9375 10.578125 -6.6875 10.359375 -6.1875 C 10.140625 -5.695312 10.03125 -4.945312 10.03125 -3.9375 Z M 14.125 -3.9375 C 14.125 -2.582031 13.894531 -1.554688 13.4375 -0.859375 C 12.976562 -0.171875 12.3125 0.171875 11.4375 0.171875 C 10.59375 0.171875 9.941406 -0.179688 9.484375 -0.890625 C 9.023438 -1.597656 8.796875 -2.613281 8.796875 -3.9375 C 8.796875 -5.28125 9.015625 -6.296875 9.453125 -6.984375 C 9.898438 -7.671875 10.5625 -8.015625 11.4375 -8.015625 C 12.28125 -8.015625 12.9375 -7.664062 13.40625 -6.96875 C 13.882812 -6.269531 14.125 -5.257812 14.125 -3.9375 Z M 11.8125 -13.0625 L 4.578125 0 L 3.265625 0 L 10.5 -13.0625 Z M 11.8125 -13.0625 "/></g></g></g></svg>