<svg xmlns="http://www.w3.org/2000/svg" xmlns:xlink="http://www.w3.org/1999/xlink" width="800" zoomAndPan="magnify" viewBox="0 0 600 599.999999" height="800" preserveAspectRatio="xMidYMid meet" version="1.0"><defs><g/></defs><rect x="-60" width="720" fill="#ffffff" y="-60" height="719.999999" fill-opacity="1"/><rect x="-60" width="720" fill="#ffffff" y="-60" height="719.999999" fill-opacity="1"/><path fill="#47126b" d="M 300 68.324219 C 308.066406 68.324219 316.113281 68.746094 324.140625 69.585938 C 332.164062 70.425781 340.121094 71.683594 348.015625 73.359375 C 355.90625 75.03125 363.691406 77.113281 371.367188 79.597656 C 379.042969 82.085938 386.566406 84.96875 393.941406 88.242188 C 401.316406 91.515625 408.5 95.164062 415.492188 99.1875 C 422.484375 103.214844 429.246094 107.59375 435.78125 112.324219 C 442.316406 117.058594 448.585938 122.117188 454.59375 127.503906 C 460.597656 132.890625 466.308594 138.578125 471.71875 144.5625 L 300 299.832031 Z M 300 68.324219 " fill-opacity="1" fill-rule="nonzero"/><path fill="#78019d" d="M 471.71875 144.5625 C 474.503906 147.644531 477.203125 150.796875 479.820312 154.023438 C 482.433594 157.246094 484.960938 160.539062 487.398438 163.902344 C 489.839844 167.265625 492.183594 170.6875 494.4375 174.175781 C 496.691406 177.664062 498.851562 181.210938 500.914062 184.8125 C 502.976562 188.417969 504.941406 192.074219 506.808594 195.785156 C 508.675781 199.492188 510.441406 203.25 512.105469 207.054688 C 513.769531 210.859375 515.328125 214.707031 516.785156 218.59375 C 518.242188 222.484375 519.59375 226.410156 520.839844 230.371094 C 522.085938 234.332031 523.226562 238.324219 524.257812 242.347656 C 525.289062 246.367188 526.210938 250.417969 527.023438 254.488281 C 527.835938 258.5625 528.539062 262.652344 529.132812 266.761719 C 529.726562 270.871094 530.207031 274.996094 530.578125 279.132812 C 530.953125 283.265625 531.210938 287.410156 531.359375 291.558594 C 531.507812 295.710938 531.542969 299.863281 531.46875 304.011719 C 531.394531 308.164062 531.207031 312.3125 530.910156 316.453125 C 530.613281 320.597656 530.203125 324.726562 529.683594 328.847656 C 529.160156 332.96875 528.53125 337.070312 527.789062 341.15625 C 527.046875 345.242188 526.199219 349.304688 525.238281 353.34375 C 524.277344 357.386719 523.210938 361.398438 522.035156 365.378906 C 520.859375 369.363281 519.574219 373.3125 518.1875 377.226562 C 516.800781 381.136719 515.308594 385.011719 513.710938 388.84375 C 512.113281 392.679688 510.414062 396.464844 508.613281 400.207031 C 506.8125 403.949219 504.914062 407.640625 502.914062 411.28125 C 500.914062 414.921875 498.820312 418.503906 496.628906 422.03125 C 494.4375 425.558594 492.152344 429.023438 489.773438 432.429688 C 487.394531 435.832031 484.925781 439.171875 482.367188 442.441406 C 479.808594 445.710938 477.164062 448.914062 474.433594 452.042969 C 471.707031 455.171875 468.894531 458.222656 466 461.203125 C 463.105469 464.179688 460.132812 467.078125 457.082031 469.894531 C 454.03125 472.710938 450.90625 475.445312 447.707031 478.09375 C 444.511719 480.746094 441.246094 483.304688 437.910156 485.78125 C 434.574219 488.253906 431.171875 490.636719 427.710938 492.925781 C 424.246094 495.21875 420.722656 497.414062 417.140625 499.515625 C 413.558594 501.617188 409.925781 503.621094 406.234375 505.523438 C 402.542969 507.429688 398.808594 509.234375 395.019531 510.941406 C 391.234375 512.644531 387.402344 514.246094 383.53125 515.746094 C 379.65625 517.242188 375.746094 518.636719 371.800781 519.921875 C 367.851562 521.210938 363.871094 522.390625 359.859375 523.464844 C 355.847656 524.539062 351.8125 525.503906 347.746094 526.363281 C 343.683594 527.21875 339.601562 527.964844 335.496094 528.601562 C 331.394531 529.238281 327.277344 529.765625 323.144531 530.179688 C 319.011719 530.59375 314.871094 530.898438 310.722656 531.089844 C 306.574219 531.28125 302.425781 531.363281 298.273438 531.332031 C 294.121094 531.300781 289.972656 531.160156 285.828125 530.90625 C 281.679688 530.652344 277.546875 530.285156 273.421875 529.808594 C 269.296875 529.332031 265.1875 528.742188 261.09375 528.046875 C 257 527.347656 252.925781 526.539062 248.878906 525.625 C 244.828125 524.707031 240.804688 523.679688 236.808594 522.546875 C 232.816406 521.414062 228.851562 520.175781 224.925781 518.828125 C 220.996094 517.480469 217.105469 516.03125 213.257812 514.472656 C 209.40625 512.917969 205.601562 511.257812 201.839844 509.5 C 198.078125 507.738281 194.367188 505.878906 190.707031 503.917969 C 187.046875 501.957031 183.441406 499.898438 179.890625 497.746094 C 176.339844 495.589844 172.851562 493.34375 169.421875 491 C 165.992188 488.65625 162.628906 486.226562 159.332031 483.703125 C 156.035156 481.179688 152.804688 478.566406 149.648438 475.871094 C 146.492188 473.175781 143.40625 470.394531 140.398438 467.53125 C 137.390625 464.667969 134.460938 461.726562 131.613281 458.707031 C 128.761719 455.6875 125.996094 452.589844 123.3125 449.421875 C 120.628906 446.253906 118.035156 443.011719 115.523438 439.703125 C 113.015625 436.394531 110.597656 433.019531 108.269531 429.582031 C 105.941406 426.144531 103.710938 422.644531 101.570312 419.085938 C 99.429688 415.523438 97.390625 411.910156 95.445312 408.242188 C 93.5 404.570312 91.65625 400.851562 89.910156 397.085938 C 88.167969 393.316406 86.523438 389.503906 84.984375 385.648438 C 83.445312 381.789062 82.011719 377.894531 80.679688 373.960938 C 79.351562 370.027344 78.128906 366.058594 77.011719 362.058594 C 75.898438 358.058594 74.890625 354.03125 73.988281 349.976562 C 73.089844 345.925781 72.300781 341.847656 71.621094 337.753906 C 70.9375 333.65625 70.371094 329.542969 69.910156 325.417969 C 69.453125 321.289062 69.105469 317.152344 68.867188 313.007812 C 68.632812 308.859375 68.507812 304.710938 68.492188 300.558594 C 68.480469 296.40625 68.578125 292.257812 68.789062 288.109375 C 69 283.960938 69.320312 279.824219 69.753906 275.691406 C 70.1875 271.5625 70.730469 267.449219 71.386719 263.347656 C 72.039062 259.246094 72.804688 255.164062 73.679688 251.105469 C 74.550781 247.046875 75.535156 243.011719 76.625 239.007812 C 77.71875 235 78.914062 231.023438 80.21875 227.082031 C 81.523438 223.140625 82.933594 219.234375 84.449219 215.371094 C 85.964844 211.503906 87.582031 207.679688 89.304688 203.902344 C 91.023438 200.121094 92.847656 196.390625 94.765625 192.710938 C 96.6875 189.027344 98.707031 185.402344 100.824219 181.828125 C 102.941406 178.253906 105.152344 174.742188 107.457031 171.289062 C 109.765625 167.835938 112.160156 164.445312 114.648438 161.121094 C 117.136719 157.796875 119.714844 154.539062 122.375 151.355469 C 125.039062 148.167969 127.785156 145.054688 130.617188 142.019531 C 133.449219 138.980469 136.359375 136.019531 139.347656 133.136719 C 142.339844 130.257812 145.402344 127.457031 148.546875 124.742188 C 151.6875 122.023438 154.898438 119.394531 158.179688 116.847656 C 161.460938 114.304688 164.808594 111.851562 168.222656 109.488281 C 171.636719 107.125 175.113281 104.855469 178.652344 102.675781 C 182.1875 100.5 185.78125 98.421875 189.429688 96.4375 C 193.078125 94.453125 196.773438 92.570312 200.523438 90.785156 C 204.273438 89 208.070312 87.320312 211.910156 85.738281 C 215.75 84.160156 219.628906 82.683594 223.550781 81.3125 C 227.46875 79.941406 231.421875 78.675781 235.410156 77.515625 L 300 299.832031 Z M 471.71875 144.5625 " fill-opacity="1" fill-rule="nonzero"/><path fill="#630a83" d="M 235.410156 77.515625 C 242.402344 75.484375 249.46875 73.789062 256.621094 72.425781 L 300 299.832031 Z M 235.410156 77.515625 " fill-opacity="1" fill-rule="nonzero"/><path fill="#9e19f0" d="M 256.621094 72.425781 C 270.941406 69.691406 285.394531 68.324219 299.976562 68.324219 L 300 299.832031 Z M 256.621094 72.425781 " fill-opacity="1" fill-rule="nonzero"/><g fill="#000000" fill-opacity="1"><g transform="translate(212.461321, 550.124871)"><g><path d="M 1.796875 0 L 1.796875 -13.0625 L 3.3125 -13.0625 L 3.3125 -1.375 L 9.078125 -1.375 L 9.078125 0 Z M 1.796875 0 "/></g></g></g><g fill="#000000" fill-opacity="1"><g transform="translate(221.949131, 550.124871)"><g><path d="M 5.8125 0 L 4.296875 0 L 4.296875 -11.71875 L 0.15625 -11.71875 L 0.15625 -13.0625 L 9.953125 -13.0625 L 9.953125 -11.71875 L 5.8125 -11.71875 Z M 5.8125 0 "/></g></g></g><g fill="#000000" fill-opacity="1"><g transform="translate(232.061726, 550.124871)"><g><path d="M 9.078125 0 L 1.796875 0 L 1.796875 -13.0625 L 9.078125 -13.0625 L 9.078125 -11.71875 L 3.3125 -11.71875 L 3.3125 -7.5 L 8.734375 -7.5 L 8.734375 -6.171875 L 3.3125 -6.171875 L 3.3125 -1.359375 L 9.078125 -1.359375 Z M 9.078125 0 "/></g></g></g><g fill="#000000" fill-opacity="1"><g transform="translate(202.091724, 572.10601)"><g><path d="M 5.21875 -13.25 C 6.40625 -13.25 7.347656 -12.972656 8.046875 -12.421875 C 8.742188 -11.867188 9.09375 -11.101562 9.09375 -10.125 C 9.09375 -9.476562 8.890625 -8.890625 8.484375 -8.359375 C 8.085938 -7.828125 7.453125 -7.347656 6.578125 -6.921875 C 7.640625 -6.410156 8.394531 -5.875 8.84375 -5.3125 C 9.289062 -4.757812 9.515625 -4.117188 9.515625 -3.390625 C 9.515625 -2.304688 9.132812 -1.441406 8.375 -0.796875 C 7.625 -0.148438 6.585938 0.171875 5.265625 0.171875 C 3.878906 0.171875 2.804688 -0.128906 2.046875 -0.734375 C 1.296875 -1.347656 0.921875 -2.210938 0.921875 -3.328125 C 0.921875 -4.828125 1.832031 -5.992188 3.65625 -6.828125 C 2.84375 -7.285156 2.253906 -7.785156 1.890625 -8.328125 C 1.535156 -8.867188 1.359375 -9.472656 1.359375 -10.140625 C 1.359375 -11.085938 1.707031 -11.84375 2.40625 -12.40625 C 3.101562 -12.96875 4.039062 -13.25 5.21875 -13.25 Z M 2.390625 -3.296875 C 2.390625 -2.578125 2.640625 -2.019531 3.140625 -1.625 C 3.640625 -1.226562 4.335938 -1.03125 5.234375 -1.03125 C 6.117188 -1.03125 6.804688 -1.238281 7.296875 -1.65625 C 7.796875 -2.070312 8.046875 -2.644531 8.046875 -3.375 C 8.046875 -3.945312 7.8125 -4.457031 7.34375 -4.90625 C 6.882812 -5.351562 6.078125 -5.789062 4.921875 -6.21875 C 4.035156 -5.832031 3.390625 -5.410156 2.984375 -4.953125 C 2.585938 -4.492188 2.390625 -3.941406 2.390625 -3.296875 Z M 5.203125 -12.046875 C 4.453125 -12.046875 3.863281 -11.863281 3.4375 -11.5 C 3.019531 -11.144531 2.8125 -10.671875 2.8125 -10.078125 C 2.8125 -9.523438 2.988281 -9.050781 3.34375 -8.65625 C 3.695312 -8.269531 4.34375 -7.878906 5.28125 -7.484375 C 6.132812 -7.835938 6.738281 -8.21875 7.09375 -8.625 C 7.445312 -9.039062 7.625 -9.523438 7.625 -10.078125 C 7.625 -10.679688 7.40625 -11.160156 6.96875 -11.515625 C 6.539062 -11.867188 5.953125 -12.046875 5.203125 -12.046875 Z M 5.203125 -12.046875 "/></g></g></g><g fill="#000000" fill-opacity="1"><g transform="translate(212.543488, 572.10601)"><g><path d="M 9.484375 0 L 0.890625 0 L 0.890625 -1.28125 L 4.328125 -4.734375 C 5.378906 -5.796875 6.070312 -6.550781 6.40625 -7 C 6.738281 -7.457031 6.988281 -7.898438 7.15625 -8.328125 C 7.320312 -8.753906 7.40625 -9.21875 7.40625 -9.71875 C 7.40625 -10.40625 7.191406 -10.953125 6.765625 -11.359375 C 6.347656 -11.773438 5.765625 -11.984375 5.015625 -11.984375 C 4.472656 -11.984375 3.957031 -11.890625 3.46875 -11.703125 C 2.988281 -11.523438 2.445312 -11.203125 1.84375 -10.734375 L 1.0625 -11.75 C 2.269531 -12.75 3.582031 -13.25 5 -13.25 C 6.21875 -13.25 7.175781 -12.929688 7.875 -12.296875 C 8.570312 -11.671875 8.921875 -10.832031 8.921875 -9.78125 C 8.921875 -8.945312 8.6875 -8.125 8.21875 -7.3125 C 7.757812 -6.507812 6.894531 -5.488281 5.625 -4.25 L 2.765625 -1.453125 L 2.765625 -1.375 L 9.484375 -1.375 Z M 9.484375 0 "/></g></g></g><g fill="#000000" fill-opacity="1"><g transform="translate(222.995252, 572.10601)"><g><path d="M 1.359375 -0.953125 C 1.359375 -1.347656 1.445312 -1.644531 1.625 -1.84375 C 1.8125 -2.050781 2.070312 -2.15625 2.40625 -2.15625 C 2.757812 -2.15625 3.03125 -2.050781 3.21875 -1.84375 C 3.414062 -1.644531 3.515625 -1.347656 3.515625 -0.953125 C 3.515625 -0.554688 3.414062 -0.253906 3.21875 -0.046875 C 3.019531 0.160156 2.75 0.265625 2.40625 0.265625 C 2.101562 0.265625 1.851562 0.171875 1.65625 -0.015625 C 1.457031 -0.203125 1.359375 -0.515625 1.359375 -0.953125 Z M 1.359375 -0.953125 "/></g></g></g><g fill="#000000" fill-opacity="1"><g transform="translate(227.859651, 572.10601)"><g><path d="M 9.484375 0 L 0.890625 0 L 0.890625 -1.28125 L 4.328125 -4.734375 C 5.378906 -5.796875 6.070312 -6.550781 6.40625 -7 C 6.738281 -7.457031 6.988281 -7.898438 7.15625 -8.328125 C 7.320312 -8.753906 7.40625 -9.21875 7.40625 -9.71875 C 7.40625 -10.40625 7.191406 -10.953125 6.765625 -11.359375 C 6.347656 -11.773438 5.765625 -11.984375 5.015625 -11.984375 C 4.472656 -11.984375 3.957031 -11.890625 3.46875 -11.703125 C 2.988281 -11.523438 2.445312 -11.203125 1.84375 -10.734375 L 1.0625 -11.75 C 2.269531 -12.75 3.582031 -13.25 5 -13.25 C 6.21875 -13.25 7.175781 -12.929688 7.875 -12.296875 C 8.570312 -11.671875 8.921875 -10.832031 8.921875 -9.78125 C 8.921875 -8.945312 8.6875 -8.125 8.21875 -7.3125 C 7.757812 -6.507812 6.894531 -5.488281 5.625 -4.25 L 2.765625 -1.453125 L 2.765625 -1.375 L 9.484375 -1.375 Z M 9.484375 0 "/></g></g></g><g fill="#000000" fill-opacity="1"><g transform="translate(238.311415, 572.10601)"><g><path d="M 2.15625 -9.171875 C 2.15625 -8.148438 2.265625 -7.382812 2.484375 -6.875 C 2.710938 -6.375 3.070312 -6.125 3.5625 -6.125 C 4.539062 -6.125 5.03125 -7.140625 5.03125 -9.171875 C 5.03125 -11.179688 4.539062 -12.1875 3.5625 -12.1875 C 3.070312 -12.1875 2.710938 -11.9375 2.484375 -11.4375 C 2.265625 -10.9375 2.15625 -10.179688 2.15625 -9.171875 Z M 6.25 -9.171875 C 6.25 -7.804688 6.019531 -6.773438 5.5625 -6.078125 C 5.113281 -5.390625 4.445312 -5.046875 3.5625 -5.046875 C 2.726562 -5.046875 2.078125 -5.398438 1.609375 -6.109375 C 1.148438 -6.816406 0.921875 -7.835938 0.921875 -9.171875 C 0.921875 -10.515625 1.144531 -11.53125 1.59375 -12.21875 C 2.039062 -12.90625 2.695312 -13.25 3.5625 -13.25 C 4.425781 -13.25 5.085938 -12.894531 5.546875 -12.1875 C 6.015625 -11.476562 6.25 -10.472656 6.25 -9.171875 Z M 10.03125 -3.9375 C 10.03125 -2.914062 10.140625 -2.148438 10.359375 -1.640625 C 10.578125 -1.140625 10.9375 -0.890625 11.4375 -0.890625 C 11.9375 -0.890625 12.304688 -1.140625 12.546875 -1.640625 C 12.785156 -2.140625 12.90625 -2.90625 12.90625 -3.9375 C 12.90625 -4.945312 12.785156 -5.695312 12.546875 -6.1875 C 12.304688 -6.6875 11.9375 -6.9375 11.4375 -6.9375 C 10.9375 -6.9375 10.578125 -6.6875 10.359375 -6.1875 C 10.140625 -5.695312 10.03125 -4.945312 10.03125 -3.9375 Z M 14.125 -3.9375 C 14.125 -2.582031 13.894531 -1.554688 13.4375 -0.859375 C 12.976562 -0.171875 12.3125 0.171875 11.4375 0.171875 C 10.59375 0.171875 9.941406 -0.179688 9.484375 -0.890625 C 9.023438 -1.597656 8.796875 -2.613281 8.796875 -3.9375 C 8.796875 -5.28125 9.015625 -6.296875 9.453125 -6.984375 C 9.898438 -7.671875 10.5625 -8.015625 11.4375 -8.015625 C 12.28125 -8.015625 12.9375 -7.664062 13.40625 -6.96875 C 13.882812 -6.269531 14.125 -5.257812 14.125 -3.9375 Z M 11.8125 -13.0625 L 4.578125 0 L 3.265625 0 L 10.5 -13.0625 Z M 11.8125 -13.0625 "/></g></g></g><g fill="#000000" fill-opacity="1"><g transform="translate(395.195333, 50.985502)"><g><path d="M 12 0 L 10.265625 0 L 3.125 -10.96875 L 3.0625 -10.96875 C 3.15625 -9.675781 3.203125 -8.492188 3.203125 -7.421875 L 3.203125 0 L 1.796875 0 L 1.796875 -13.0625 L 3.515625 -13.0625 L 10.625 -2.140625 L 10.703125 -2.140625 C 10.691406 -2.304688 10.664062 -2.820312 10.625 -3.6875 C 10.582031 -4.5625 10.566406 -5.1875 10.578125 -5.5625 L 10.578125 -13.0625 L 12 -13.0625 Z M 12 0 "/></g></g></g><g fill="#000000" fill-opacity="1"><g transform="translate(408.976309, 50.985502)"><g><path d="M 3.3125 -5.4375 L 3.3125 0 L 1.796875 0 L 1.796875 -13.0625 L 5.375 -13.0625 C 6.976562 -13.0625 8.160156 -12.753906 8.921875 -12.140625 C 9.691406 -11.523438 10.078125 -10.601562 10.078125 -9.375 C 10.078125 -7.644531 9.203125 -6.476562 7.453125 -5.875 L 11 0 L 9.203125 0 L 6.046875 -5.4375 Z M 3.3125 -6.734375 L 5.390625 -6.734375 C 6.460938 -6.734375 7.25 -6.945312 7.75 -7.375 C 8.25 -7.800781 8.5 -8.441406 8.5 -9.296875 C 8.5 -10.160156 8.242188 -10.78125 7.734375 -11.15625 C 7.234375 -11.539062 6.414062 -11.734375 5.28125 -11.734375 L 3.3125 -11.734375 Z M 3.3125 -6.734375 "/></g></g></g><g fill="#000000" fill-opacity="1"><g transform="translate(382.486547, 72.966634)"><g><path d="M 6.390625 0 L 4.9375 0 L 4.9375 -9.3125 C 4.9375 -10.082031 4.960938 -10.8125 5.015625 -11.5 C 4.890625 -11.375 4.75 -11.242188 4.59375 -11.109375 C 4.4375 -10.972656 3.726562 -10.394531 2.46875 -9.375 L 1.671875 -10.390625 L 5.140625 -13.0625 L 6.390625 -13.0625 Z M 6.390625 0 "/></g></g></g><g fill="#000000" fill-opacity="1"><g transform="translate(392.938311, 72.966634)"><g><path d="M 8.984375 -9.984375 C 8.984375 -9.148438 8.75 -8.46875 8.28125 -7.9375 C 7.8125 -7.40625 7.148438 -7.050781 6.296875 -6.875 L 6.296875 -6.8125 C 7.347656 -6.675781 8.125 -6.335938 8.625 -5.796875 C 9.132812 -5.265625 9.390625 -4.566406 9.390625 -3.703125 C 9.390625 -2.453125 8.957031 -1.492188 8.09375 -0.828125 C 7.226562 -0.160156 6 0.171875 4.40625 0.171875 C 3.71875 0.171875 3.085938 0.117188 2.515625 0.015625 C 1.941406 -0.0859375 1.382812 -0.269531 0.84375 -0.53125 L 0.84375 -1.9375 C 1.40625 -1.65625 2.003906 -1.441406 2.640625 -1.296875 C 3.285156 -1.148438 3.894531 -1.078125 4.46875 -1.078125 C 6.726562 -1.078125 7.859375 -1.960938 7.859375 -3.734375 C 7.859375 -5.316406 6.613281 -6.109375 4.125 -6.109375 L 2.828125 -6.109375 L 2.828125 -7.390625 L 4.140625 -7.390625 C 5.160156 -7.390625 5.96875 -7.613281 6.5625 -8.0625 C 7.15625 -8.507812 7.453125 -9.132812 7.453125 -9.9375 C 7.453125 -10.570312 7.234375 -11.070312 6.796875 -11.4375 C 6.359375 -11.800781 5.765625 -11.984375 5.015625 -11.984375 C 4.441406 -11.984375 3.898438 -11.90625 3.390625 -11.75 C 2.890625 -11.59375 2.3125 -11.304688 1.65625 -10.890625 L 0.90625 -11.890625 C 1.445312 -12.316406 2.066406 -12.648438 2.765625 -12.890625 C 3.460938 -13.128906 4.195312 -13.25 4.96875 -13.25 C 6.238281 -13.25 7.222656 -12.957031 7.921875 -12.375 C 8.628906 -11.789062 8.984375 -10.992188 8.984375 -9.984375 Z M 8.984375 -9.984375 "/></g></g></g><g fill="#000000" fill-opacity="1"><g transform="translate(403.390075, 72.966634)"><g><path d="M 1.359375 -0.953125 C 1.359375 -1.347656 1.445312 -1.644531 1.625 -1.84375 C 1.8125 -2.050781 2.070312 -2.15625 2.40625 -2.15625 C 2.757812 -2.15625 3.03125 -2.050781 3.21875 -1.84375 C 3.414062 -1.644531 3.515625 -1.347656 3.515625 -0.953125 C 3.515625 -0.554688 3.414062 -0.253906 3.21875 -0.046875 C 3.019531 0.160156 2.75 0.265625 2.40625 0.265625 C 2.101562 0.265625 1.851562 0.171875 1.65625 -0.015625 C 1.457031 -0.203125 1.359375 -0.515625 1.359375 -0.953125 Z M 1.359375 -0.953125 "/></g></g></g><g fill="#000000" fill-opacity="1"><g transform="translate(408.254474, 72.966634)"><g><path d="M 8.984375 -9.984375 C 8.984375 -9.148438 8.75 -8.46875 8.28125 -7.9375 C 7.8125 -7.40625 7.148438 -7.050781 6.296875 -6.875 L 6.296875 -6.8125 C 7.347656 -6.675781 8.125 -6.335938 8.625 -5.796875 C 9.132812 -5.265625 9.390625 -4.566406 9.390625 -3.703125 C 9.390625 -2.453125 8.957031 -1.492188 8.09375 -0.828125 C 7.226562 -0.160156 6 0.171875 4.40625 0.171875 C 3.71875 0.171875 3.085938 0.117188 2.515625 0.015625 C 1.941406 -0.0859375 1.382812 -0.269531 0.84375 -0.53125 L 0.84375 -1.9375 C 1.40625 -1.65625 2.003906 -1.441406 2.640625 -1.296875 C 3.285156 -1.148438 3.894531 -1.078125 4.46875 -1.078125 C 6.726562 -1.078125 7.859375 -1.960938 7.859375 -3.734375 C 7.859375 -5.316406 6.613281 -6.109375 4.125 -6.109375 L 2.828125 -6.109375 L 2.828125 -7.390625 L 4.140625 -7.390625 C 5.160156 -7.390625 5.96875 -7.613281 6.5625 -8.0625 C 7.15625 -8.507812 7.453125 -9.132812 7.453125 -9.9375 C 7.453125 -10.570312 7.234375 -11.070312 6.796875 -11.4375 C 6.359375 -11.800781 5.765625 -11.984375 5.015625 -11.984375 C 4.441406 -11.984375 3.898438 -11.90625 3.390625 -11.75 C 2.890625 -11.59375 2.3125 -11.304688 1.65625 -10.890625 L 0.90625 -11.890625 C 1.445312 -12.316406 2.066406 -12.648438 2.765625 -12.890625 C 3.460938 -13.128906 4.195312 -13.25 4.96875 -13.25 C 6.238281 -13.25 7.222656 -12.957031 7.921875 -12.375 C 8.628906 -11.789062 8.984375 -10.992188 8.984375 -9.984375 Z M 8.984375 -9.984375 "/></g></g></g><g fill="#000000" fill-opacity="1"><g transform="translate(418.706238, 72.966634)"><g><path d="M 2.15625 -9.171875 C 2.15625 -8.148438 2.265625 -7.382812 2.484375 -6.875 C 2.710938 -6.375 3.070312 -6.125 3.5625 -6.125 C 4.539062 -6.125 5.03125 -7.140625 5.03125 -9.171875 C 5.03125 -11.179688 4.539062 -12.1875 3.5625 -12.1875 C 3.070312 -12.1875 2.710938 -11.9375 2.484375 -11.4375 C 2.265625 -10.9375 2.15625 -10.179688 2.15625 -9.171875 Z M 6.25 -9.171875 C 6.25 -7.804688 6.019531 -6.773438 5.5625 -6.078125 C 5.113281 -5.390625 4.445312 -5.046875 3.5625 -5.046875 C 2.726562 -5.046875 2.078125 -5.398438 1.609375 -6.109375 C 1.148438 -6.816406 0.921875 -7.835938 0.921875 -9.171875 C 0.921875 -10.515625 1.144531 -11.53125 1.59375 -12.21875 C 2.039062 -12.90625 2.695312 -13.25 3.5625 -13.25 C 4.425781 -13.25 5.085938 -12.894531 5.546875 -12.1875 C 6.015625 -11.476562 6.25 -10.472656 6.25 -9.171875 Z M 10.03125 -3.9375 C 10.03125 -2.914062 10.140625 -2.148438 10.359375 -1.640625 C 10.578125 -1.140625 10.9375 -0.890625 11.4375 -0.890625 C 11.9375 -0.890625 12.304688 -1.140625 12.546875 -1.640625 C 12.785156 -2.140625 12.90625 -2.90625 12.90625 -3.9375 C 12.90625 -4.945312 12.785156 -5.695312 12.546875 -6.1875 C 12.304688 -6.6875 11.9375 -6.9375 11.4375 -6.9375 C 10.9375 -6.9375 10.578125 -6.6875 10.359375 -6.1875 C 10.140625 -5.695312 10.03125 -4.945312 10.03125 -3.9375 Z M 14.125 -3.9375 C 14.125 -2.582031 13.894531 -1.554688 13.4375 -0.859375 C 12.976562 -0.171875 12.3125 0.171875 11.4375 0.171875 C 10.59375 0.171875 9.941406 -0.179688 9.484375 -0.890625 C 9.023438 -1.597656 8.796875 -2.613281 8.796875 -3.9375 C 8.796875 -5.28125 9.015625 -6.296875 9.453125 -6.984375 C 9.898438 -7.671875 10.5625 -8.015625 11.4375 -8.015625 C 12.28125 -8.015625 12.9375 -7.664062 13.40625 -6.96875 C 13.882812 -6.269531 14.125 -5.257812 14.125 -3.9375 Z M 11.8125 -13.0625 L 4.578125 0 L 3.265625 0 L 10.5 -13.0625 Z M 11.8125 -13.0625 "/></g></g></g><g fill="#000000" fill-opacity="1"><g transform="translate(255.567497, 36.142505)"><g><path d="M 7.546875 -6.84375 L 11.984375 -6.84375 L 11.984375 -0.484375 C 11.285156 -0.265625 10.578125 -0.101562 9.859375 0 C 9.148438 0.113281 8.328125 0.171875 7.390625 0.171875 C 5.410156 0.171875 3.867188 -0.410156 2.765625 -1.578125 C 1.660156 -2.753906 1.109375 -4.40625 1.109375 -6.53125 C 1.109375 -7.882812 1.378906 -9.070312 1.921875 -10.09375 C 2.472656 -11.113281 3.257812 -11.894531 4.28125 -12.4375 C 5.3125 -12.976562 6.515625 -13.25 7.890625 -13.25 C 9.285156 -13.25 10.582031 -12.992188 11.78125 -12.484375 L 11.1875 -11.140625 C 10.007812 -11.640625 8.878906 -11.890625 7.796875 -11.890625 C 6.203125 -11.890625 4.957031 -11.414062 4.0625 -10.46875 C 3.164062 -9.519531 2.71875 -8.207031 2.71875 -6.53125 C 2.71875 -4.769531 3.148438 -3.429688 4.015625 -2.515625 C 4.878906 -1.609375 6.144531 -1.15625 7.8125 -1.15625 C 8.71875 -1.15625 9.601562 -1.257812 10.46875 -1.46875 L 10.46875 -5.484375 L 7.546875 -5.484375 Z M 7.546875 -6.84375 "/></g></g></g><g fill="#000000" fill-opacity="1"><g transform="translate(268.875422, 36.142505)"><g><path d="M 9.171875 -3.46875 C 9.171875 -2.320312 8.753906 -1.425781 7.921875 -0.78125 C 7.085938 -0.144531 5.953125 0.171875 4.515625 0.171875 C 2.972656 0.171875 1.785156 -0.0234375 0.953125 -0.421875 L 0.953125 -1.890625 C 1.484375 -1.660156 2.0625 -1.476562 2.6875 -1.34375 C 3.320312 -1.21875 3.953125 -1.15625 4.578125 -1.15625 C 5.585938 -1.15625 6.347656 -1.347656 6.859375 -1.734375 C 7.367188 -2.117188 7.625 -2.648438 7.625 -3.328125 C 7.625 -3.785156 7.53125 -4.15625 7.34375 -4.4375 C 7.164062 -4.726562 6.863281 -4.992188 6.4375 -5.234375 C 6.019531 -5.484375 5.375 -5.765625 4.5 -6.078125 C 3.289062 -6.515625 2.421875 -7.03125 1.890625 -7.625 C 1.367188 -8.21875 1.109375 -8.992188 1.109375 -9.953125 C 1.109375 -10.960938 1.488281 -11.765625 2.25 -12.359375 C 3.007812 -12.953125 4.007812 -13.25 5.25 -13.25 C 6.550781 -13.25 7.742188 -13.007812 8.828125 -12.53125 L 8.359375 -11.21875 C 7.285156 -11.664062 6.238281 -11.890625 5.21875 -11.890625 C 4.414062 -11.890625 3.785156 -11.71875 3.328125 -11.375 C 2.878906 -11.03125 2.65625 -10.550781 2.65625 -9.9375 C 2.65625 -9.476562 2.738281 -9.101562 2.90625 -8.8125 C 3.070312 -8.53125 3.351562 -8.269531 3.75 -8.03125 C 4.144531 -7.789062 4.75 -7.523438 5.5625 -7.234375 C 6.9375 -6.742188 7.878906 -6.21875 8.390625 -5.65625 C 8.910156 -5.09375 9.171875 -4.363281 9.171875 -3.46875 Z M 9.171875 -3.46875 "/></g></g></g><g fill="#000000" fill-opacity="1"><g transform="translate(278.907687, 36.142505)"><g><path d="M 7.578125 0 L 3.140625 -11.578125 L 3.078125 -11.578125 C 3.160156 -10.660156 3.203125 -9.570312 3.203125 -8.3125 L 3.203125 0 L 1.796875 0 L 1.796875 -13.0625 L 4.078125 -13.0625 L 8.21875 -2.28125 L 8.296875 -2.28125 L 12.46875 -13.0625 L 14.734375 -13.0625 L 14.734375 0 L 13.21875 0 L 13.21875 -8.421875 C 13.21875 -9.378906 13.257812 -10.425781 13.34375 -11.5625 L 13.265625 -11.5625 L 8.796875 0 Z M 7.578125 0 "/></g></g></g><g fill="#000000" fill-opacity="1"><g transform="translate(262.355966, 58.123644)"><g><path d="M 8.984375 -9.984375 C 8.984375 -9.148438 8.75 -8.46875 8.28125 -7.9375 C 7.8125 -7.40625 7.148438 -7.050781 6.296875 -6.875 L 6.296875 -6.8125 C 7.347656 -6.675781 8.125 -6.335938 8.625 -5.796875 C 9.132812 -5.265625 9.390625 -4.566406 9.390625 -3.703125 C 9.390625 -2.453125 8.957031 -1.492188 8.09375 -0.828125 C 7.226562 -0.160156 6 0.171875 4.40625 0.171875 C 3.71875 0.171875 3.085938 0.117188 2.515625 0.015625 C 1.941406 -0.0859375 1.382812 -0.269531 0.84375 -0.53125 L 0.84375 -1.9375 C 1.40625 -1.65625 2.003906 -1.441406 2.640625 -1.296875 C 3.285156 -1.148438 3.894531 -1.078125 4.46875 -1.078125 C 6.726562 -1.078125 7.859375 -1.960938 7.859375 -3.734375 C 7.859375 -5.316406 6.613281 -6.109375 4.125 -6.109375 L 2.828125 -6.109375 L 2.828125 -7.390625 L 4.140625 -7.390625 C 5.160156 -7.390625 5.96875 -7.613281 6.5625 -8.0625 C 7.15625 -8.507812 7.453125 -9.132812 7.453125 -9.9375 C 7.453125 -10.570312 7.234375 -11.070312 6.796875 -11.4375 C 6.359375 -11.800781 5.765625 -11.984375 5.015625 -11.984375 C 4.441406 -11.984375 3.898438 -11.90625 3.390625 -11.75 C 2.890625 -11.59375 2.3125 -11.304688 1.65625 -10.890625 L 0.90625 -11.890625 C 1.445312 -12.316406 2.066406 -12.648438 2.765625 -12.890625 C 3.460938 -13.128906 4.195312 -13.25 4.96875 -13.25 C 6.238281 -13.25 7.222656 -12.957031 7.921875 -12.375 C 8.628906 -11.789062 8.984375 -10.992188 8.984375 -9.984375 Z M 8.984375 -9.984375 "/></g></g></g><g fill="#000000" fill-opacity="1"><g transform="translate(272.80773, 58.123644)"><g><path d="M 2.15625 -9.171875 C 2.15625 -8.148438 2.265625 -7.382812 2.484375 -6.875 C 2.710938 -6.375 3.070312 -6.125 3.5625 -6.125 C 4.539062 -6.125 5.03125 -7.140625 5.03125 -9.171875 C 5.03125 -11.179688 4.539062 -12.1875 3.5625 -12.1875 C 3.070312 -12.1875 2.710938 -11.9375 2.484375 -11.4375 C 2.265625 -10.9375 2.15625 -10.179688 2.15625 -9.171875 Z M 6.25 -9.171875 C 6.25 -7.804688 6.019531 -6.773438 5.5625 -6.078125 C 5.113281 -5.390625 4.445312 -5.046875 3.5625 -5.046875 C 2.726562 -5.046875 2.078125 -5.398438 1.609375 -6.109375 C 1.148438 -6.816406 0.921875 -7.835938 0.921875 -9.171875 C 0.921875 -10.515625 1.144531 -11.53125 1.59375 -12.21875 C 2.039062 -12.90625 2.695312 -13.25 3.5625 -13.25 C 4.425781 -13.25 5.085938 -12.894531 5.546875 -12.1875 C 6.015625 -11.476562 6.25 -10.472656 6.25 -9.171875 Z M 10.03125 -3.9375 C 10.03125 -2.914062 10.140625 -2.148438 10.359375 -1.640625 C 10.578125 -1.140625 10.9375 -0.890625 11.4375 -0.890625 C 11.9375 -0.890625 12.304688 -1.140625 12.546875 -1.640625 C 12.785156 -2.140625 12.90625 -2.90625 12.90625 -3.9375 C 12.90625 -4.945312 12.785156 -5.695312 12.546875 -6.1875 C 12.304688 -6.6875 11.9375 -6.9375 11.4375 -6.9375 C 10.9375 -6.9375 10.578125 -6.6875 10.359375 -6.1875 C 10.140625 -5.695312 10.03125 -4.945312 10.03125 -3.9375 Z M 14.125 -3.9375 C 14.125 -2.582031 13.894531 -1.554688 13.4375 -0.859375 C 12.976562 -0.171875 12.3125 0.171875 11.4375 0.171875 C 10.59375 0.171875 9.941406 -0.179688 9.484375 -0.890625 C 9.023438 -1.597656 8.796875 -2.613281 8.796875 -3.9375 C 8.796875 -5.28125 9.015625 -6.296875 9.453125 -6.984375 C 9.898438 -7.671875 10.5625 -8.015625 11.4375 -8.015625 C 12.28125 -8.015625 12.9375 -7.664062 13.40625 -6.96875 C 13.882812 -6.269531 14.125 -5.257812 14.125 -3.9375 Z M 11.8125 -13.0625 L 4.578125 0 L 3.265625 0 L 10.5 -13.0625 Z M 11.8125 -13.0625 "/></g></g></g></svg>