<svg xmlns="http://www.w3.org/2000/svg" xmlns:xlink="http://www.w3.org/1999/xlink" width="800" zoomAndPan="magnify" viewBox="0 0 600 599.999999" height="800" preserveAspectRatio="xMidYMid meet" version="1.0"><defs><g/></defs><rect x="-60" width="720" fill="#ffffff" y="-60" height="719.999999" fill-opacity="1"/><rect x="-60" width="720" fill="#ffffff" y="-60" height="719.999999" fill-opacity="1"/><path fill="#47126b" d="M 324.160156 74.074219 C 327.882812 74.074219 331.601562 74.160156 335.320312 74.332031 C 339.039062 74.5 342.75 74.757812 346.457031 75.097656 C 350.160156 75.4375 353.855469 75.863281 357.542969 76.375 C 361.230469 76.886719 364.902344 77.480469 368.5625 78.160156 C 372.21875 78.839844 375.863281 79.601562 379.484375 80.449219 C 383.109375 81.292969 386.710938 82.222656 390.292969 83.234375 C 393.875 84.246094 397.429688 85.339844 400.960938 86.515625 C 404.492188 87.6875 407.996094 88.945312 411.46875 90.28125 C 414.941406 91.613281 418.382812 93.03125 421.792969 94.523438 C 425.199219 96.015625 428.574219 97.585938 431.910156 99.234375 C 435.246094 100.882812 438.542969 102.605469 441.800781 104.40625 C 445.058594 106.207031 448.273438 108.078125 451.445312 110.027344 C 454.617188 111.972656 457.742188 113.992188 460.820312 116.082031 C 463.898438 118.171875 466.929688 120.332031 469.910156 122.5625 C 472.886719 124.789062 475.816406 127.085938 478.691406 129.449219 C 481.5625 131.816406 484.382812 134.242188 487.144531 136.734375 C 489.910156 139.230469 492.613281 141.785156 495.257812 144.402344 C 497.902344 147.019531 500.488281 149.695312 503.011719 152.429688 C 505.535156 155.167969 507.992188 157.957031 510.386719 160.808594 C 512.78125 163.65625 515.109375 166.558594 517.371094 169.511719 C 519.632812 172.46875 521.828125 175.472656 523.949219 178.53125 C 526.074219 181.585938 528.125 184.6875 530.109375 187.839844 C 532.089844 190.988281 533.996094 194.183594 535.832031 197.421875 C 537.667969 200.660156 539.425781 203.9375 541.109375 207.253906 C 542.792969 210.574219 544.402344 213.929688 545.933594 217.320312 C 547.460938 220.714844 548.914062 224.140625 550.289062 227.597656 C 551.660156 231.058594 552.953125 234.546875 554.167969 238.0625 C 555.378906 241.582031 556.511719 245.125 557.5625 248.695312 C 558.613281 252.265625 559.582031 255.859375 560.464844 259.472656 C 561.351562 263.085938 562.152344 266.71875 562.871094 270.371094 C 563.589844 274.023438 564.226562 277.6875 564.777344 281.371094 C 565.328125 285.050781 565.792969 288.742188 566.175781 292.441406 C 566.554688 296.144531 566.851562 299.851562 567.0625 303.570312 C 567.273438 307.285156 567.398438 311.003906 567.441406 314.722656 C 567.480469 318.445312 567.433594 322.164062 567.304688 325.882812 C 567.175781 329.605469 566.960938 333.316406 566.660156 337.027344 C 566.359375 340.734375 565.972656 344.4375 565.5 348.128906 C 565.03125 351.820312 564.476562 355.5 563.835938 359.164062 C 563.199219 362.832031 562.476562 366.480469 561.667969 370.113281 C 560.859375 373.746094 559.972656 377.359375 559 380.949219 C 558.027344 384.542969 556.972656 388.109375 555.835938 391.65625 C 554.699219 395.199219 553.480469 398.714844 552.183594 402.203125 C 550.886719 405.691406 549.511719 409.144531 548.054688 412.570312 C 546.597656 415.996094 545.0625 419.386719 543.453125 422.738281 C 541.839844 426.09375 540.152344 429.410156 538.386719 432.6875 C 536.625 435.960938 534.785156 439.199219 532.875 442.390625 C 530.960938 445.582031 528.976562 448.730469 526.917969 451.832031 C 524.863281 454.933594 522.734375 457.984375 520.539062 460.988281 C 518.34375 463.992188 516.078125 466.945312 513.746094 469.84375 C 511.414062 472.742188 509.015625 475.589844 506.554688 478.378906 C 504.089844 481.167969 501.566406 483.902344 498.976562 486.574219 C 496.386719 489.25 493.738281 491.863281 491.03125 494.414062 C 488.324219 496.964844 485.558594 499.457031 482.734375 501.882812 C 479.914062 504.308594 477.039062 506.667969 474.105469 508.960938 C 471.175781 511.253906 468.195312 513.480469 465.160156 515.636719 C 462.128906 517.792969 459.046875 519.878906 455.917969 521.894531 C 452.792969 523.910156 449.617188 525.851562 446.402344 527.722656 C 443.183594 529.589844 439.925781 531.386719 436.625 533.105469 C 433.324219 534.828125 429.988281 536.46875 426.609375 538.039062 C 423.234375 539.605469 419.828125 541.09375 416.382812 542.503906 C 412.9375 543.914062 409.464844 545.246094 405.960938 546.496094 C 402.453125 547.746094 398.921875 548.917969 395.363281 550.007812 C 391.804688 551.097656 388.226562 552.101562 384.621094 553.027344 C 381.015625 553.953125 377.390625 554.792969 373.746094 555.554688 C 370.105469 556.3125 366.445312 556.984375 362.773438 557.578125 C 359.097656 558.167969 355.410156 558.671875 351.714844 559.09375 C 348.015625 559.515625 344.3125 559.851562 340.597656 560.105469 C 336.886719 560.355469 333.167969 560.519531 329.449219 560.601562 C 325.726562 560.683594 322.007812 560.679688 318.285156 560.589844 C 314.566406 560.5 310.851562 560.324219 307.136719 560.0625 C 303.425781 559.804688 299.722656 559.457031 296.023438 559.027344 C 292.328125 558.597656 288.644531 558.082031 284.96875 557.480469 C 281.296875 556.882812 277.640625 556.199219 274 555.433594 C 270.359375 554.664062 266.734375 553.8125 263.132812 552.878906 C 259.53125 551.949219 255.953125 550.933594 252.394531 549.832031 C 248.839844 548.734375 245.3125 547.558594 241.808594 546.296875 C 238.308594 545.039062 234.835938 543.699219 231.394531 542.28125 C 227.957031 540.859375 224.550781 539.363281 221.179688 537.789062 C 217.808594 536.214844 214.472656 534.5625 211.175781 532.832031 C 207.882812 531.105469 204.628906 529.300781 201.414062 527.425781 C 198.199219 525.546875 195.03125 523.597656 191.910156 521.574219 C 188.785156 519.550781 185.710938 517.457031 182.683594 515.292969 C 179.65625 513.128906 176.679688 510.898438 173.753906 508.597656 C 170.828125 506.296875 167.957031 503.929688 165.140625 501.496094 C 162.324219 499.0625 159.566406 496.570312 156.863281 494.007812 C 154.160156 491.449219 151.519531 488.832031 148.9375 486.152344 C 146.355469 483.46875 143.835938 480.730469 141.382812 477.9375 C 138.925781 475.140625 136.535156 472.289062 134.210938 469.382812 C 131.882812 466.480469 129.625 463.523438 127.4375 460.511719 C 125.246094 457.503906 123.128906 454.445312 121.078125 451.339844 C 119.03125 448.234375 117.050781 445.082031 115.148438 441.882812 C 113.242188 438.6875 111.414062 435.449219 109.65625 432.167969 C 107.902344 428.886719 106.222656 425.566406 104.617188 422.207031 C 103.015625 418.847656 101.488281 415.457031 100.039062 412.027344 C 98.59375 408.601562 97.222656 405.140625 95.933594 401.648438 C 94.644531 398.160156 93.4375 394.640625 92.308594 391.09375 L 324.160156 317.367188 Z M 324.160156 74.074219 " fill-opacity="1" fill-rule="nonzero"/><path fill="#78019d" d="M 92.308594 391.09375 C 90.070312 384.046875 88.152344 376.914062 86.5625 369.695312 C 84.972656 362.472656 83.714844 355.195312 82.789062 347.859375 C 81.859375 340.523438 81.269531 333.164062 81.015625 325.773438 C 80.757812 318.382812 80.839844 311 81.257812 303.617188 C 81.675781 296.234375 82.429688 288.886719 83.515625 281.574219 C 84.605469 274.261719 86.023438 267.011719 87.769531 259.828125 C 89.519531 252.644531 91.589844 245.554688 93.988281 238.558594 C 96.382812 231.566406 99.089844 224.695312 102.109375 217.945312 L 324.160156 317.367188 Z M 92.308594 391.09375 " fill-opacity="1" fill-rule="nonzero"/><path fill="#630a83" d="M 102.109375 217.945312 C 102.320312 217.480469 102.527344 217.015625 102.738281 216.550781 L 324.160156 317.367188 Z M 102.109375 217.945312 " fill-opacity="1" fill-rule="nonzero"/><path fill="#9e19f0" d="M 102.738281 216.550781 C 108.5625 203.769531 115.4375 191.578125 123.371094 179.984375 C 131.300781 168.390625 140.171875 157.566406 149.980469 147.507812 L 324.160156 317.367188 Z M 102.738281 216.550781 " fill-opacity="1" fill-rule="nonzero"/><path fill="#aa47d2" d="M 149.980469 147.507812 C 155.632812 141.714844 161.558594 136.214844 167.757812 131.011719 C 173.957031 125.804688 180.402344 120.921875 187.089844 116.363281 C 193.777344 111.800781 200.675781 107.585938 207.785156 103.714844 C 214.894531 99.84375 222.175781 96.332031 229.636719 93.1875 C 237.09375 90.042969 244.691406 87.277344 252.425781 84.890625 C 260.160156 82.503906 267.996094 80.507812 275.929688 78.902344 C 283.863281 77.296875 291.859375 76.09375 299.914062 75.285156 C 307.96875 74.480469 316.042969 74.074219 324.136719 74.074219 L 324.160156 317.367188 Z M 149.980469 147.507812 " fill-opacity="1" fill-rule="nonzero"/><g fill="#000000" fill-opacity="1"><g transform="translate(539.146257, 481.678196)"><g><path d="M 1.890625 0 L 1.890625 -13.71875 L 3.484375 -13.71875 L 3.484375 -1.4375 L 9.53125 -1.4375 L 9.53125 0 Z M 1.890625 0 "/></g></g></g><g fill="#000000" fill-opacity="1"><g transform="translate(549.117055, 481.678196)"><g><path d="M 6.109375 0 L 4.515625 0 L 4.515625 -12.296875 L 0.171875 -12.296875 L 0.171875 -13.71875 L 10.453125 -13.71875 L 10.453125 -12.296875 L 6.109375 -12.296875 Z M 6.109375 0 "/></g></g></g><g fill="#000000" fill-opacity="1"><g transform="translate(559.744445, 481.678196)"><g><path d="M 9.53125 0 L 1.890625 0 L 1.890625 -13.71875 L 9.53125 -13.71875 L 9.53125 -12.296875 L 3.484375 -12.296875 L 3.484375 -7.875 L 9.171875 -7.875 L 9.171875 -6.46875 L 3.484375 -6.46875 L 3.484375 -1.421875 L 9.53125 -1.421875 Z M 9.53125 0 "/></g></g></g><g fill="#000000" fill-opacity="1"><g transform="translate(528.261457, 504.778305)"><g><path d="M 2.671875 0 L 8.359375 -12.28125 L 0.875 -12.28125 L 0.875 -13.71875 L 10.015625 -13.71875 L 10.015625 -12.46875 L 4.40625 0 Z M 2.671875 0 "/></g></g></g><g fill="#000000" fill-opacity="1"><g transform="translate(539.245281, 504.778305)"><g><path d="M 10.03125 -6.875 C 10.03125 -4.507812 9.65625 -2.738281 8.90625 -1.5625 C 8.15625 -0.394531 7.015625 0.1875 5.484375 0.1875 C 4.003906 0.1875 2.878906 -0.410156 2.109375 -1.609375 C 1.335938 -2.804688 0.953125 -4.5625 0.953125 -6.875 C 0.953125 -9.269531 1.320312 -11.046875 2.0625 -12.203125 C 2.8125 -13.359375 3.953125 -13.9375 5.484375 -13.9375 C 6.972656 -13.9375 8.101562 -13.332031 8.875 -12.125 C 9.644531 -10.914062 10.03125 -9.164062 10.03125 -6.875 Z M 2.53125 -6.875 C 2.53125 -4.882812 2.765625 -3.429688 3.234375 -2.515625 C 3.703125 -1.609375 4.453125 -1.15625 5.484375 -1.15625 C 6.515625 -1.15625 7.265625 -1.613281 7.734375 -2.53125 C 8.203125 -3.457031 8.4375 -4.90625 8.4375 -6.875 C 8.4375 -8.84375 8.203125 -10.285156 7.734375 -11.203125 C 7.265625 -12.117188 6.515625 -12.578125 5.484375 -12.578125 C 4.453125 -12.578125 3.703125 -12.125 3.234375 -11.21875 C 2.765625 -10.320312 2.53125 -8.875 2.53125 -6.875 Z M 2.53125 -6.875 "/></g></g></g><g fill="#000000" fill-opacity="1"><g transform="translate(550.229106, 504.778305)"><g><path d="M 1.421875 -1 C 1.421875 -1.414062 1.515625 -1.726562 1.703125 -1.9375 C 1.898438 -2.15625 2.175781 -2.265625 2.53125 -2.265625 C 2.894531 -2.265625 3.175781 -2.15625 3.375 -1.9375 C 3.582031 -1.726562 3.6875 -1.414062 3.6875 -1 C 3.6875 -0.59375 3.582031 -0.28125 3.375 -0.0625 C 3.164062 0.15625 2.882812 0.265625 2.53125 0.265625 C 2.21875 0.265625 1.953125 0.171875 1.734375 -0.015625 C 1.523438 -0.210938 1.421875 -0.539062 1.421875 -1 Z M 1.421875 -1 "/></g></g></g><g fill="#000000" fill-opacity="1"><g transform="translate(555.341133, 504.778305)"><g><path d="M 6.703125 0 L 5.1875 0 L 5.1875 -9.78125 C 5.1875 -10.59375 5.210938 -11.363281 5.265625 -12.09375 C 5.128906 -11.957031 4.976562 -11.816406 4.8125 -11.671875 C 4.65625 -11.523438 3.914062 -10.914062 2.59375 -9.84375 L 1.765625 -10.90625 L 5.390625 -13.71875 L 6.703125 -13.71875 Z M 6.703125 0 "/></g></g></g><g fill="#000000" fill-opacity="1"><g transform="translate(566.324957, 504.778305)"><g><path d="M 2.265625 -9.625 C 2.265625 -8.5625 2.378906 -7.765625 2.609375 -7.234375 C 2.847656 -6.703125 3.226562 -6.4375 3.75 -6.4375 C 4.769531 -6.4375 5.28125 -7.5 5.28125 -9.625 C 5.28125 -11.738281 4.769531 -12.796875 3.75 -12.796875 C 3.226562 -12.796875 2.847656 -12.53125 2.609375 -12 C 2.378906 -11.476562 2.265625 -10.6875 2.265625 -9.625 Z M 6.5625 -9.625 C 6.5625 -8.195312 6.320312 -7.117188 5.84375 -6.390625 C 5.375 -5.660156 4.675781 -5.296875 3.75 -5.296875 C 2.875 -5.296875 2.191406 -5.664062 1.703125 -6.40625 C 1.210938 -7.15625 0.96875 -8.226562 0.96875 -9.625 C 0.96875 -11.050781 1.203125 -12.125 1.671875 -12.84375 C 2.140625 -13.5625 2.832031 -13.921875 3.75 -13.921875 C 4.65625 -13.921875 5.347656 -13.546875 5.828125 -12.796875 C 6.316406 -12.054688 6.5625 -11 6.5625 -9.625 Z M 10.53125 -4.125 C 10.53125 -3.0625 10.644531 -2.265625 10.875 -1.734375 C 11.101562 -1.203125 11.484375 -0.9375 12.015625 -0.9375 C 12.535156 -0.9375 12.921875 -1.195312 13.171875 -1.71875 C 13.421875 -2.238281 13.546875 -3.039062 13.546875 -4.125 C 13.546875 -5.195312 13.421875 -5.988281 13.171875 -6.5 C 12.921875 -7.019531 12.535156 -7.28125 12.015625 -7.28125 C 11.484375 -7.28125 11.101562 -7.019531 10.875 -6.5 C 10.644531 -5.988281 10.53125 -5.195312 10.53125 -4.125 Z M 14.84375 -4.125 C 14.84375 -2.707031 14.601562 -1.632812 14.125 -0.90625 C 13.644531 -0.175781 12.941406 0.1875 12.015625 0.1875 C 11.117188 0.1875 10.429688 -0.179688 9.953125 -0.921875 C 9.484375 -1.671875 9.25 -2.738281 9.25 -4.125 C 9.25 -5.550781 9.476562 -6.625 9.9375 -7.34375 C 10.40625 -8.0625 11.097656 -8.421875 12.015625 -8.421875 C 12.898438 -8.421875 13.59375 -8.050781 14.09375 -7.3125 C 14.59375 -6.582031 14.84375 -5.519531 14.84375 -4.125 Z M 12.421875 -13.71875 L 4.8125 0 L 3.421875 0 L 11.03125 -13.71875 Z M 12.421875 -13.71875 "/></g></g></g><g fill="#000000" fill-opacity="1"><g transform="translate(201.134455, 54.066333)"><g><path d="M 12.609375 0 L 10.78125 0 L 3.28125 -11.515625 L 3.203125 -11.515625 C 3.304688 -10.160156 3.359375 -8.921875 3.359375 -7.796875 L 3.359375 0 L 1.890625 0 L 1.890625 -13.71875 L 3.6875 -13.71875 L 11.171875 -2.25 L 11.25 -2.25 C 11.226562 -2.414062 11.195312 -2.957031 11.15625 -3.875 C 11.113281 -4.789062 11.097656 -5.445312 11.109375 -5.84375 L 11.109375 -13.71875 L 12.609375 -13.71875 Z M 12.609375 0 "/></g></g></g><g fill="#000000" fill-opacity="1"><g transform="translate(215.61697, 54.066333)"><g><path d="M 3.484375 -5.703125 L 3.484375 0 L 1.890625 0 L 1.890625 -13.71875 L 5.65625 -13.71875 C 7.332031 -13.71875 8.570312 -13.394531 9.375 -12.75 C 10.175781 -12.101562 10.578125 -11.132812 10.578125 -9.84375 C 10.578125 -8.03125 9.660156 -6.804688 7.828125 -6.171875 L 11.546875 0 L 9.671875 0 L 6.34375 -5.703125 Z M 3.484375 -7.078125 L 5.671875 -7.078125 C 6.796875 -7.078125 7.617188 -7.300781 8.140625 -7.75 C 8.671875 -8.195312 8.9375 -8.867188 8.9375 -9.765625 C 8.9375 -10.671875 8.664062 -11.320312 8.125 -11.71875 C 7.59375 -12.125 6.738281 -12.328125 5.5625 -12.328125 L 3.484375 -12.328125 Z M 3.484375 -7.078125 "/></g></g></g><g fill="#000000" fill-opacity="1"><g transform="translate(187.778708, 77.16645)"><g><path d="M 6.703125 0 L 5.1875 0 L 5.1875 -9.78125 C 5.1875 -10.59375 5.210938 -11.363281 5.265625 -12.09375 C 5.128906 -11.957031 4.976562 -11.816406 4.8125 -11.671875 C 4.65625 -11.523438 3.914062 -10.914062 2.59375 -9.84375 L 1.765625 -10.90625 L 5.390625 -13.71875 L 6.703125 -13.71875 Z M 6.703125 0 "/></g></g></g><g fill="#000000" fill-opacity="1"><g transform="translate(198.762533, 77.16645)"><g><path d="M 9.953125 0 L 0.9375 0 L 0.9375 -1.34375 L 4.546875 -4.96875 C 5.648438 -6.082031 6.375 -6.878906 6.71875 -7.359375 C 7.070312 -7.835938 7.335938 -8.300781 7.515625 -8.75 C 7.691406 -9.195312 7.78125 -9.679688 7.78125 -10.203125 C 7.78125 -10.929688 7.554688 -11.507812 7.109375 -11.9375 C 6.671875 -12.363281 6.054688 -12.578125 5.265625 -12.578125 C 4.691406 -12.578125 4.148438 -12.484375 3.640625 -12.296875 C 3.128906 -12.109375 2.5625 -11.769531 1.9375 -11.28125 L 1.109375 -12.34375 C 2.378906 -13.394531 3.757812 -13.921875 5.25 -13.921875 C 6.53125 -13.921875 7.535156 -13.585938 8.265625 -12.921875 C 9.003906 -12.265625 9.375 -11.378906 9.375 -10.265625 C 9.375 -9.398438 9.128906 -8.539062 8.640625 -7.6875 C 8.148438 -6.832031 7.238281 -5.753906 5.90625 -4.453125 L 2.90625 -1.515625 L 2.90625 -1.4375 L 9.953125 -1.4375 Z M 9.953125 0 "/></g></g></g><g fill="#000000" fill-opacity="1"><g transform="translate(209.746357, 77.16645)"><g><path d="M 1.421875 -1 C 1.421875 -1.414062 1.515625 -1.726562 1.703125 -1.9375 C 1.898438 -2.15625 2.175781 -2.265625 2.53125 -2.265625 C 2.894531 -2.265625 3.175781 -2.15625 3.375 -1.9375 C 3.582031 -1.726562 3.6875 -1.414062 3.6875 -1 C 3.6875 -0.59375 3.582031 -0.28125 3.375 -0.0625 C 3.164062 0.15625 2.882812 0.265625 2.53125 0.265625 C 2.21875 0.265625 1.953125 0.171875 1.734375 -0.015625 C 1.523438 -0.210938 1.421875 -0.539062 1.421875 -1 Z M 1.421875 -1 "/></g></g></g><g fill="#000000" fill-opacity="1"><g transform="translate(214.858385, 77.16645)"><g><path d="M 2.671875 0 L 8.359375 -12.28125 L 0.875 -12.28125 L 0.875 -13.71875 L 10.015625 -13.71875 L 10.015625 -12.46875 L 4.40625 0 Z M 2.671875 0 "/></g></g></g><g fill="#000000" fill-opacity="1"><g transform="translate(225.842209, 77.16645)"><g><path d="M 2.265625 -9.625 C 2.265625 -8.5625 2.378906 -7.765625 2.609375 -7.234375 C 2.847656 -6.703125 3.226562 -6.4375 3.75 -6.4375 C 4.769531 -6.4375 5.28125 -7.5 5.28125 -9.625 C 5.28125 -11.738281 4.769531 -12.796875 3.75 -12.796875 C 3.226562 -12.796875 2.847656 -12.53125 2.609375 -12 C 2.378906 -11.476562 2.265625 -10.6875 2.265625 -9.625 Z M 6.5625 -9.625 C 6.5625 -8.195312 6.320312 -7.117188 5.84375 -6.390625 C 5.375 -5.660156 4.675781 -5.296875 3.75 -5.296875 C 2.875 -5.296875 2.191406 -5.664062 1.703125 -6.40625 C 1.210938 -7.15625 0.96875 -8.226562 0.96875 -9.625 C 0.96875 -11.050781 1.203125 -12.125 1.671875 -12.84375 C 2.140625 -13.5625 2.832031 -13.921875 3.75 -13.921875 C 4.65625 -13.921875 5.347656 -13.546875 5.828125 -12.796875 C 6.316406 -12.054688 6.5625 -11 6.5625 -9.625 Z M 10.53125 -4.125 C 10.53125 -3.0625 10.644531 -2.265625 10.875 -1.734375 C 11.101562 -1.203125 11.484375 -0.9375 12.015625 -0.9375 C 12.535156 -0.9375 12.921875 -1.195312 13.171875 -1.71875 C 13.421875 -2.238281 13.546875 -3.039062 13.546875 -4.125 C 13.546875 -5.195312 13.421875 -5.988281 13.171875 -6.5 C 12.921875 -7.019531 12.535156 -7.28125 12.015625 -7.28125 C 11.484375 -7.28125 11.101562 -7.019531 10.875 -6.5 C 10.644531 -5.988281 10.53125 -5.195312 10.53125 -4.125 Z M 14.84375 -4.125 C 14.84375 -2.707031 14.601562 -1.632812 14.125 -0.90625 C 13.644531 -0.175781 12.941406 0.1875 12.015625 0.1875 C 11.117188 0.1875 10.429688 -0.179688 9.953125 -0.921875 C 9.484375 -1.671875 9.25 -2.738281 9.25 -4.125 C 9.25 -5.550781 9.476562 -6.625 9.9375 -7.34375 C 10.40625 -8.0625 11.097656 -8.421875 12.015625 -8.421875 C 12.898438 -8.421875 13.59375 -8.050781 14.09375 -7.3125 C 14.59375 -6.582031 14.84375 -5.519531 14.84375 -4.125 Z M 12.421875 -13.71875 L 4.8125 0 L 3.421875 0 L 11.03125 -13.71875 Z M 12.421875 -13.71875 "/></g></g></g><g fill="#000000" fill-opacity="1"><g transform="translate(23.594311, 296.88996)"><g><path d="M 7.921875 -7.1875 L 12.578125 -7.1875 L 12.578125 -0.515625 C 11.859375 -0.285156 11.125 -0.113281 10.375 0 C 9.625 0.125 8.753906 0.1875 7.765625 0.1875 C 5.679688 0.1875 4.0625 -0.425781 2.90625 -1.65625 C 1.75 -2.894531 1.171875 -4.628906 1.171875 -6.859375 C 1.171875 -8.285156 1.457031 -9.535156 2.03125 -10.609375 C 2.601562 -11.679688 3.425781 -12.5 4.5 -13.0625 C 5.582031 -13.632812 6.84375 -13.921875 8.28125 -13.921875 C 9.75 -13.921875 11.113281 -13.648438 12.375 -13.109375 L 11.765625 -11.703125 C 10.523438 -12.222656 9.332031 -12.484375 8.1875 -12.484375 C 6.507812 -12.484375 5.203125 -11.984375 4.265625 -10.984375 C 3.328125 -9.992188 2.859375 -8.617188 2.859375 -6.859375 C 2.859375 -5.003906 3.3125 -3.597656 4.21875 -2.640625 C 5.125 -1.679688 6.453125 -1.203125 8.203125 -1.203125 C 9.148438 -1.203125 10.078125 -1.3125 10.984375 -1.53125 L 10.984375 -5.765625 L 7.921875 -5.765625 Z M 7.921875 -7.1875 "/></g></g></g><g fill="#000000" fill-opacity="1"><g transform="translate(37.579693, 296.88996)"><g><path d="M 9.625 -3.65625 C 9.625 -2.445312 9.1875 -1.503906 8.3125 -0.828125 C 7.4375 -0.148438 6.25 0.1875 4.75 0.1875 C 3.125 0.1875 1.875 -0.0195312 1 -0.4375 L 1 -1.984375 C 1.5625 -1.742188 2.171875 -1.550781 2.828125 -1.40625 C 3.492188 -1.269531 4.15625 -1.203125 4.8125 -1.203125 C 5.875 -1.203125 6.671875 -1.40625 7.203125 -1.8125 C 7.742188 -2.21875 8.015625 -2.78125 8.015625 -3.5 C 8.015625 -3.976562 7.914062 -4.367188 7.71875 -4.671875 C 7.53125 -4.972656 7.210938 -5.25 6.765625 -5.5 C 6.316406 -5.757812 5.640625 -6.050781 4.734375 -6.375 C 3.453125 -6.832031 2.535156 -7.375 1.984375 -8 C 1.441406 -8.625 1.171875 -9.441406 1.171875 -10.453125 C 1.171875 -11.515625 1.566406 -12.359375 2.359375 -12.984375 C 3.160156 -13.609375 4.210938 -13.921875 5.515625 -13.921875 C 6.878906 -13.921875 8.132812 -13.671875 9.28125 -13.171875 L 8.78125 -11.78125 C 7.644531 -12.25 6.546875 -12.484375 5.484375 -12.484375 C 4.640625 -12.484375 3.976562 -12.300781 3.5 -11.9375 C 3.019531 -11.582031 2.78125 -11.082031 2.78125 -10.4375 C 2.78125 -9.957031 2.867188 -9.566406 3.046875 -9.265625 C 3.222656 -8.960938 3.519531 -8.679688 3.9375 -8.421875 C 4.351562 -8.171875 4.988281 -7.894531 5.84375 -7.59375 C 7.28125 -7.082031 8.269531 -6.53125 8.8125 -5.9375 C 9.351562 -5.351562 9.625 -4.59375 9.625 -3.65625 Z M 9.625 -3.65625 "/></g></g></g><g fill="#000000" fill-opacity="1"><g transform="translate(48.122664, 296.88996)"><g><path d="M 7.953125 0 L 3.296875 -12.15625 L 3.234375 -12.15625 C 3.316406 -11.195312 3.359375 -10.054688 3.359375 -8.734375 L 3.359375 0 L 1.890625 0 L 1.890625 -13.71875 L 4.28125 -13.71875 L 8.640625 -2.40625 L 8.703125 -2.40625 L 13.09375 -13.71875 L 15.46875 -13.71875 L 15.46875 0 L 13.875 0 L 13.875 -8.84375 C 13.875 -9.851562 13.921875 -10.953125 14.015625 -12.140625 L 13.9375 -12.140625 L 9.25 0 Z M 7.953125 0 "/></g></g></g><g fill="#000000" fill-opacity="1"><g transform="translate(17.195208, 319.990073)"><g><path d="M 6.703125 0 L 5.1875 0 L 5.1875 -9.78125 C 5.1875 -10.59375 5.210938 -11.363281 5.265625 -12.09375 C 5.128906 -11.957031 4.976562 -11.816406 4.8125 -11.671875 C 4.65625 -11.523438 3.914062 -10.914062 2.59375 -9.84375 L 1.765625 -10.90625 L 5.390625 -13.71875 L 6.703125 -13.71875 Z M 6.703125 0 "/></g></g></g><g fill="#000000" fill-opacity="1"><g transform="translate(28.179033, 319.990073)"><g><path d="M 6.703125 0 L 5.1875 0 L 5.1875 -9.78125 C 5.1875 -10.59375 5.210938 -11.363281 5.265625 -12.09375 C 5.128906 -11.957031 4.976562 -11.816406 4.8125 -11.671875 C 4.65625 -11.523438 3.914062 -10.914062 2.59375 -9.84375 L 1.765625 -10.90625 L 5.390625 -13.71875 L 6.703125 -13.71875 Z M 6.703125 0 "/></g></g></g><g fill="#000000" fill-opacity="1"><g transform="translate(39.162857, 319.990073)"><g><path d="M 1.421875 -1 C 1.421875 -1.414062 1.515625 -1.726562 1.703125 -1.9375 C 1.898438 -2.15625 2.175781 -2.265625 2.53125 -2.265625 C 2.894531 -2.265625 3.175781 -2.15625 3.375 -1.9375 C 3.582031 -1.726562 3.6875 -1.414062 3.6875 -1 C 3.6875 -0.59375 3.582031 -0.28125 3.375 -0.0625 C 3.164062 0.15625 2.882812 0.265625 2.53125 0.265625 C 2.21875 0.265625 1.953125 0.171875 1.734375 -0.015625 C 1.523438 -0.210938 1.421875 -0.539062 1.421875 -1 Z M 1.421875 -1 "/></g></g></g><g fill="#000000" fill-opacity="1"><g transform="translate(44.274884, 319.990073)"><g><path d="M 1.09375 -5.859375 C 1.09375 -8.554688 1.613281 -10.570312 2.65625 -11.90625 C 3.707031 -13.25 5.257812 -13.921875 7.3125 -13.921875 C 8.019531 -13.921875 8.578125 -13.859375 8.984375 -13.734375 L 8.984375 -12.390625 C 8.503906 -12.546875 7.957031 -12.625 7.34375 -12.625 C 5.875 -12.625 4.75 -12.164062 3.96875 -11.25 C 3.195312 -10.332031 2.769531 -8.894531 2.6875 -6.9375 L 2.8125 -6.9375 C 3.5 -8.007812 4.585938 -8.546875 6.078125 -8.546875 C 7.304688 -8.546875 8.273438 -8.171875 8.984375 -7.421875 C 9.691406 -6.679688 10.046875 -5.675781 10.046875 -4.40625 C 10.046875 -2.976562 9.65625 -1.851562 8.875 -1.03125 C 8.101562 -0.21875 7.050781 0.1875 5.71875 0.1875 C 4.300781 0.1875 3.175781 -0.34375 2.34375 -1.40625 C 1.507812 -2.476562 1.09375 -3.960938 1.09375 -5.859375 Z M 5.703125 -1.140625 C 6.585938 -1.140625 7.273438 -1.414062 7.765625 -1.96875 C 8.265625 -2.53125 8.515625 -3.34375 8.515625 -4.40625 C 8.515625 -5.3125 8.285156 -6.019531 7.828125 -6.53125 C 7.367188 -7.050781 6.6875 -7.3125 5.78125 -7.3125 C 5.21875 -7.3125 4.703125 -7.195312 4.234375 -6.96875 C 3.765625 -6.738281 3.390625 -6.421875 3.109375 -6.015625 C 2.828125 -5.609375 2.6875 -5.1875 2.6875 -4.75 C 2.6875 -4.101562 2.8125 -3.5 3.0625 -2.9375 C 3.3125 -2.382812 3.664062 -1.945312 4.125 -1.625 C 4.59375 -1.300781 5.117188 -1.140625 5.703125 -1.140625 Z M 5.703125 -1.140625 "/></g></g></g><g fill="#000000" fill-opacity="1"><g transform="translate(55.258709, 319.990073)"><g><path d="M 2.265625 -9.625 C 2.265625 -8.5625 2.378906 -7.765625 2.609375 -7.234375 C 2.847656 -6.703125 3.226562 -6.4375 3.75 -6.4375 C 4.769531 -6.4375 5.28125 -7.5 5.28125 -9.625 C 5.28125 -11.738281 4.769531 -12.796875 3.75 -12.796875 C 3.226562 -12.796875 2.847656 -12.53125 2.609375 -12 C 2.378906 -11.476562 2.265625 -10.6875 2.265625 -9.625 Z M 6.5625 -9.625 C 6.5625 -8.195312 6.320312 -7.117188 5.84375 -6.390625 C 5.375 -5.660156 4.675781 -5.296875 3.75 -5.296875 C 2.875 -5.296875 2.191406 -5.664062 1.703125 -6.40625 C 1.210938 -7.15625 0.96875 -8.226562 0.96875 -9.625 C 0.96875 -11.050781 1.203125 -12.125 1.671875 -12.84375 C 2.140625 -13.5625 2.832031 -13.921875 3.75 -13.921875 C 4.65625 -13.921875 5.347656 -13.546875 5.828125 -12.796875 C 6.316406 -12.054688 6.5625 -11 6.5625 -9.625 Z M 10.53125 -4.125 C 10.53125 -3.0625 10.644531 -2.265625 10.875 -1.734375 C 11.101562 -1.203125 11.484375 -0.9375 12.015625 -0.9375 C 12.535156 -0.9375 12.921875 -1.195312 13.171875 -1.71875 C 13.421875 -2.238281 13.546875 -3.039062 13.546875 -4.125 C 13.546875 -5.195312 13.421875 -5.988281 13.171875 -6.5 C 12.921875 -7.019531 12.535156 -7.28125 12.015625 -7.28125 C 11.484375 -7.28125 11.101562 -7.019531 10.875 -6.5 C 10.644531 -5.988281 10.53125 -5.195312 10.53125 -4.125 Z M 14.84375 -4.125 C 14.84375 -2.707031 14.601562 -1.632812 14.125 -0.90625 C 13.644531 -0.175781 12.941406 0.1875 12.015625 0.1875 C 11.117188 0.1875 10.429688 -0.179688 9.953125 -0.921875 C 9.484375 -1.671875 9.25 -2.738281 9.25 -4.125 C 9.25 -5.550781 9.476562 -6.625 9.9375 -7.34375 C 10.40625 -8.0625 11.097656 -8.421875 12.015625 -8.421875 C 12.898438 -8.421875 13.59375 -8.050781 14.09375 -7.3125 C 14.59375 -6.582031 14.84375 -5.519531 14.84375 -4.125 Z M 12.421875 -13.71875 L 4.8125 0 L 3.421875 0 L 11.03125 -13.71875 Z M 12.421875 -13.71875 "/></g></g></g><g fill="#000000" fill-opacity="1"><g transform="translate(44.09677, 146.200688)"><g><path d="M 13.859375 0 L 12.28125 0 L 9.515625 -9.1875 C 9.378906 -9.59375 9.226562 -10.101562 9.0625 -10.71875 C 8.90625 -11.34375 8.828125 -11.71875 8.828125 -11.84375 C 8.679688 -11.019531 8.460938 -10.113281 8.171875 -9.125 L 5.484375 0 L 3.90625 0 L 0.25 -13.71875 L 1.9375 -13.71875 L 4.109375 -5.25 C 4.410156 -4.0625 4.628906 -2.984375 4.765625 -2.015625 C 4.929688 -3.160156 5.179688 -4.28125 5.515625 -5.375 L 7.96875 -13.71875 L 9.671875 -13.71875 L 12.25 -5.296875 C 12.550781 -4.328125 12.800781 -3.234375 13 -2.015625 C 13.125 -2.898438 13.351562 -3.984375 13.6875 -5.265625 L 15.84375 -13.71875 L 17.53125 -13.71875 Z M 13.859375 0 "/></g></g></g><g fill="#000000" fill-opacity="1"><g transform="translate(61.880998, 146.200688)"><g><path d="M 7.765625 -12.484375 C 6.253906 -12.484375 5.0625 -11.984375 4.1875 -10.984375 C 3.3125 -9.984375 2.875 -8.609375 2.875 -6.859375 C 2.875 -5.066406 3.296875 -3.679688 4.140625 -2.703125 C 4.984375 -1.722656 6.179688 -1.234375 7.734375 -1.234375 C 8.691406 -1.234375 9.785156 -1.40625 11.015625 -1.75 L 11.015625 -0.34375 C 10.066406 0.0078125 8.894531 0.1875 7.5 0.1875 C 5.476562 0.1875 3.914062 -0.421875 2.8125 -1.640625 C 1.71875 -2.867188 1.171875 -4.613281 1.171875 -6.875 C 1.171875 -8.289062 1.4375 -9.53125 1.96875 -10.59375 C 2.5 -11.65625 3.257812 -12.472656 4.25 -13.046875 C 5.25 -13.628906 6.425781 -13.921875 7.78125 -13.921875 C 9.21875 -13.921875 10.472656 -13.65625 11.546875 -13.125 L 10.875 -11.765625 C 9.832031 -12.242188 8.796875 -12.484375 7.765625 -12.484375 Z M 7.765625 -12.484375 "/></g></g></g><g fill="#000000" fill-opacity="1"><g transform="translate(73.999786, 146.200688)"><g><path d="M 12.84375 -6.984375 C 12.84375 -4.722656 12.226562 -2.992188 11 -1.796875 C 9.769531 -0.597656 8 0 5.6875 0 L 1.890625 0 L 1.890625 -13.71875 L 6.09375 -13.71875 C 8.226562 -13.71875 9.882812 -13.125 11.0625 -11.9375 C 12.25 -10.757812 12.84375 -9.109375 12.84375 -6.984375 Z M 11.140625 -6.9375 C 11.140625 -8.726562 10.691406 -10.078125 9.796875 -10.984375 C 8.898438 -11.890625 7.566406 -12.34375 5.796875 -12.34375 L 3.484375 -12.34375 L 3.484375 -1.375 L 5.421875 -1.375 C 7.328125 -1.375 8.753906 -1.84375 9.703125 -2.78125 C 10.660156 -3.71875 11.140625 -5.101562 11.140625 -6.9375 Z M 11.140625 -6.9375 "/></g></g></g><g fill="#000000" fill-opacity="1"><g transform="translate(88.003927, 146.200688)"><g><path d="M 7.953125 0 L 3.296875 -12.15625 L 3.234375 -12.15625 C 3.316406 -11.195312 3.359375 -10.054688 3.359375 -8.734375 L 3.359375 0 L 1.890625 0 L 1.890625 -13.71875 L 4.28125 -13.71875 L 8.640625 -2.40625 L 8.703125 -2.40625 L 13.09375 -13.71875 L 15.46875 -13.71875 L 15.46875 0 L 13.875 0 L 13.875 -8.84375 C 13.875 -9.851562 13.921875 -10.953125 14.015625 -12.140625 L 13.9375 -12.140625 L 9.25 0 Z M 7.953125 0 "/></g></g></g><g fill="#000000" fill-opacity="1"><g transform="translate(105.347302, 146.200688)"><g><path d="M 10.515625 0 L 8.796875 -4.359375 L 3.296875 -4.359375 L 1.609375 0 L 0 0 L 5.421875 -13.78125 L 6.765625 -13.78125 L 12.15625 0 Z M 8.3125 -5.796875 L 6.703125 -10.046875 C 6.503906 -10.585938 6.296875 -11.25 6.078125 -12.03125 C 5.929688 -11.425781 5.734375 -10.765625 5.484375 -10.046875 L 3.859375 -5.796875 Z M 8.3125 -5.796875 "/></g></g></g><g fill="#000000" fill-opacity="1"><g transform="translate(59.353235, 169.300797)"><g><path d="M 5.234375 -8.375 C 6.671875 -8.375 7.800781 -8.015625 8.625 -7.296875 C 9.457031 -6.585938 9.875 -5.609375 9.875 -4.359375 C 9.875 -2.941406 9.421875 -1.828125 8.515625 -1.015625 C 7.617188 -0.210938 6.375 0.1875 4.78125 0.1875 C 3.238281 0.1875 2.0625 -0.0546875 1.25 -0.546875 L 1.25 -2.0625 C 1.6875 -1.78125 2.226562 -1.554688 2.875 -1.390625 C 3.53125 -1.234375 4.175781 -1.15625 4.8125 -1.15625 C 5.90625 -1.15625 6.753906 -1.414062 7.359375 -1.9375 C 7.972656 -2.457031 8.28125 -3.207031 8.28125 -4.1875 C 8.28125 -6.101562 7.109375 -7.0625 4.765625 -7.0625 C 4.171875 -7.0625 3.378906 -6.96875 2.390625 -6.78125 L 1.578125 -7.296875 L 2.09375 -13.71875 L 8.921875 -13.71875 L 8.921875 -12.28125 L 3.421875 -12.28125 L 3.078125 -8.171875 C 3.796875 -8.304688 4.515625 -8.375 5.234375 -8.375 Z M 5.234375 -8.375 "/></g></g></g><g fill="#000000" fill-opacity="1"><g transform="translate(70.33706, 169.300797)"><g><path d="M 1.421875 -1 C 1.421875 -1.414062 1.515625 -1.726562 1.703125 -1.9375 C 1.898438 -2.15625 2.175781 -2.265625 2.53125 -2.265625 C 2.894531 -2.265625 3.175781 -2.15625 3.375 -1.9375 C 3.582031 -1.726562 3.6875 -1.414062 3.6875 -1 C 3.6875 -0.59375 3.582031 -0.28125 3.375 -0.0625 C 3.164062 0.15625 2.882812 0.265625 2.53125 0.265625 C 2.21875 0.265625 1.953125 0.171875 1.734375 -0.015625 C 1.523438 -0.210938 1.421875 -0.539062 1.421875 -1 Z M 1.421875 -1 "/></g></g></g><g fill="#000000" fill-opacity="1"><g transform="translate(75.449087, 169.300797)"><g><path d="M 5.234375 -8.375 C 6.671875 -8.375 7.800781 -8.015625 8.625 -7.296875 C 9.457031 -6.585938 9.875 -5.609375 9.875 -4.359375 C 9.875 -2.941406 9.421875 -1.828125 8.515625 -1.015625 C 7.617188 -0.210938 6.375 0.1875 4.78125 0.1875 C 3.238281 0.1875 2.0625 -0.0546875 1.25 -0.546875 L 1.25 -2.0625 C 1.6875 -1.78125 2.226562 -1.554688 2.875 -1.390625 C 3.53125 -1.234375 4.175781 -1.15625 4.8125 -1.15625 C 5.90625 -1.15625 6.753906 -1.414062 7.359375 -1.9375 C 7.972656 -2.457031 8.28125 -3.207031 8.28125 -4.1875 C 8.28125 -6.101562 7.109375 -7.0625 4.765625 -7.0625 C 4.171875 -7.0625 3.378906 -6.96875 2.390625 -6.78125 L 1.578125 -7.296875 L 2.09375 -13.71875 L 8.921875 -13.71875 L 8.921875 -12.28125 L 3.421875 -12.28125 L 3.078125 -8.171875 C 3.796875 -8.304688 4.515625 -8.375 5.234375 -8.375 Z M 5.234375 -8.375 "/></g></g></g><g fill="#000000" fill-opacity="1"><g transform="translate(86.432911, 169.300797)"><g><path d="M 2.265625 -9.625 C 2.265625 -8.5625 2.378906 -7.765625 2.609375 -7.234375 C 2.847656 -6.703125 3.226562 -6.4375 3.75 -6.4375 C 4.769531 -6.4375 5.28125 -7.5 5.28125 -9.625 C 5.28125 -11.738281 4.769531 -12.796875 3.75 -12.796875 C 3.226562 -12.796875 2.847656 -12.53125 2.609375 -12 C 2.378906 -11.476562 2.265625 -10.6875 2.265625 -9.625 Z M 6.5625 -9.625 C 6.5625 -8.195312 6.320312 -7.117188 5.84375 -6.390625 C 5.375 -5.660156 4.675781 -5.296875 3.75 -5.296875 C 2.875 -5.296875 2.191406 -5.664062 1.703125 -6.40625 C 1.210938 -7.15625 0.96875 -8.226562 0.96875 -9.625 C 0.96875 -11.050781 1.203125 -12.125 1.671875 -12.84375 C 2.140625 -13.5625 2.832031 -13.921875 3.75 -13.921875 C 4.65625 -13.921875 5.347656 -13.546875 5.828125 -12.796875 C 6.316406 -12.054688 6.5625 -11 6.5625 -9.625 Z M 10.53125 -4.125 C 10.53125 -3.0625 10.644531 -2.265625 10.875 -1.734375 C 11.101562 -1.203125 11.484375 -0.9375 12.015625 -0.9375 C 12.535156 -0.9375 12.921875 -1.195312 13.171875 -1.71875 C 13.421875 -2.238281 13.546875 -3.039062 13.546875 -4.125 C 13.546875 -5.195312 13.421875 -5.988281 13.171875 -6.5 C 12.921875 -7.019531 12.535156 -7.28125 12.015625 -7.28125 C 11.484375 -7.28125 11.101562 -7.019531 10.875 -6.5 C 10.644531 -5.988281 10.53125 -5.195312 10.53125 -4.125 Z M 14.84375 -4.125 C 14.84375 -2.707031 14.601562 -1.632812 14.125 -0.90625 C 13.644531 -0.175781 12.941406 0.1875 12.015625 0.1875 C 11.117188 0.1875 10.429688 -0.179688 9.953125 -0.921875 C 9.484375 -1.671875 9.25 -2.738281 9.25 -4.125 C 9.25 -5.550781 9.476562 -6.625 9.9375 -7.34375 C 10.40625 -8.0625 11.097656 -8.421875 12.015625 -8.421875 C 12.898438 -8.421875 13.59375 -8.050781 14.09375 -7.3125 C 14.59375 -6.582031 14.84375 -5.519531 14.84375 -4.125 Z M 12.421875 -13.71875 L 4.8125 0 L 3.421875 0 L 11.03125 -13.71875 Z M 12.421875 -13.71875 "/></g></g></g></svg>