<svg xmlns="http://www.w3.org/2000/svg" xmlns:xlink="http://www.w3.org/1999/xlink" width="800" zoomAndPan="magnify" viewBox="0 0 600 599.999999" height="800" preserveAspectRatio="xMidYMid meet" version="1.0"><defs><g/></defs><rect x="-60" width="720" fill="#ffffff" y="-60" height="719.999999" fill-opacity="1"/><rect x="-60" width="720" fill="#ffffff" y="-60" height="719.999999" fill-opacity="1"/><path fill="#47126b" d="M 324.160156 74.074219 C 327.886719 74.074219 331.609375 74.160156 335.332031 74.332031 C 339.050781 74.503906 342.769531 74.757812 346.476562 75.101562 C 350.1875 75.441406 353.886719 75.867188 357.578125 76.378906 C 361.265625 76.890625 364.941406 77.488281 368.605469 78.167969 C 372.265625 78.847656 375.914062 79.613281 379.539062 80.460938 C 383.167969 81.308594 386.773438 82.238281 390.359375 83.253906 C 393.941406 84.265625 397.5 85.363281 401.035156 86.539062 C 404.570312 87.714844 408.074219 88.972656 411.550781 90.3125 C 415.027344 91.648438 418.472656 93.066406 421.882812 94.5625 C 425.296875 96.058594 428.671875 97.632812 432.011719 99.285156 C 435.347656 100.9375 438.648438 102.664062 441.910156 104.464844 C 445.167969 106.269531 448.386719 108.144531 451.558594 110.097656 C 454.734375 112.046875 457.859375 114.070312 460.941406 116.164062 C 464.019531 118.257812 467.050781 120.421875 470.035156 122.65625 C 473.015625 124.890625 475.941406 127.191406 478.820312 129.558594 C 481.695312 131.925781 484.515625 134.359375 487.277344 136.855469 C 490.042969 139.351562 492.746094 141.914062 495.394531 144.535156 C 498.039062 147.15625 500.625 149.839844 503.148438 152.578125 C 505.671875 155.320312 508.128906 158.117188 510.523438 160.96875 C 512.917969 163.824219 515.246094 166.730469 517.507812 169.691406 C 519.769531 172.652344 521.960938 175.660156 524.085938 178.722656 C 526.207031 181.785156 528.257812 184.890625 530.238281 188.046875 C 532.21875 191.203125 534.125 194.402344 535.957031 197.644531 C 537.792969 200.886719 539.550781 204.171875 541.230469 207.496094 C 542.914062 210.816406 544.519531 214.179688 546.046875 217.574219 C 547.574219 220.972656 549.023438 224.402344 550.394531 227.867188 C 551.765625 231.332031 553.054688 234.824219 554.265625 238.347656 C 555.476562 241.871094 556.601562 245.421875 557.648438 248.996094 C 558.695312 252.570312 559.660156 256.167969 560.542969 259.789062 C 561.425781 263.40625 562.222656 267.042969 562.9375 270.699219 C 563.652344 274.355469 564.28125 278.027344 564.828125 281.710938 C 565.375 285.398438 565.835938 289.09375 566.210938 292.796875 C 566.585938 296.503906 566.878906 300.21875 567.082031 303.9375 C 567.289062 307.65625 567.410156 311.378906 567.445312 315.105469 C 567.476562 318.828125 567.425781 322.550781 567.292969 326.273438 C 567.15625 329.996094 566.933594 333.714844 566.625 337.429688 C 566.320312 341.140625 565.925781 344.84375 565.449219 348.539062 C 564.972656 352.234375 564.410156 355.914062 563.765625 359.582031 C 563.117188 363.25 562.386719 366.902344 561.574219 370.539062 C 560.757812 374.171875 559.863281 377.789062 558.882812 381.382812 C 557.902344 384.976562 556.839844 388.546875 555.695312 392.089844 C 554.550781 395.636719 553.324219 399.152344 552.019531 402.640625 C 550.714844 406.128906 549.328125 409.585938 547.863281 413.011719 C 546.402344 416.4375 544.859375 419.828125 543.238281 423.183594 C 541.617188 426.535156 539.921875 429.851562 538.148438 433.128906 C 536.375 436.40625 534.53125 439.640625 532.609375 442.832031 C 530.6875 446.023438 528.695312 449.167969 526.628906 452.269531 C 524.5625 455.367188 522.429688 458.417969 520.222656 461.421875 C 518.015625 464.421875 515.742188 467.371094 513.402344 470.269531 C 511.0625 473.167969 508.65625 476.011719 506.183594 478.796875 C 503.710938 481.585938 501.175781 484.3125 498.578125 486.984375 C 495.980469 489.652344 493.324219 492.261719 490.609375 494.8125 C 487.890625 497.359375 485.117188 499.84375 482.285156 502.265625 C 479.457031 504.6875 476.570312 507.042969 473.632812 509.332031 C 470.691406 511.621094 467.703125 513.839844 464.660156 515.992188 C 461.617188 518.140625 458.53125 520.222656 455.394531 522.230469 C 452.257812 524.242188 449.074219 526.175781 445.847656 528.039062 C 442.625 529.902344 439.355469 531.691406 436.050781 533.40625 C 432.742188 535.117188 429.394531 536.753906 426.011719 538.3125 C 422.628906 539.875 419.210938 541.355469 415.761719 542.757812 C 412.3125 544.160156 408.828125 545.480469 405.316406 546.726562 C 401.804688 547.96875 398.265625 549.128906 394.703125 550.207031 C 391.136719 551.289062 387.550781 552.285156 383.9375 553.203125 C 380.328125 554.117188 376.695312 554.949219 373.046875 555.699219 C 369.398438 556.445312 365.734375 557.109375 362.054688 557.691406 C 358.375 558.269531 354.683594 558.765625 350.980469 559.175781 C 347.277344 559.585938 343.570312 559.914062 339.851562 560.152344 C 336.132812 560.394531 332.414062 560.546875 328.6875 560.617188 C 324.964844 560.6875 321.238281 560.671875 317.515625 560.570312 C 313.792969 560.46875 310.074219 560.28125 306.359375 560.007812 C 302.640625 559.734375 298.933594 559.375 295.238281 558.933594 C 291.539062 558.492188 287.851562 557.964844 284.175781 557.351562 C 280.503906 556.738281 276.84375 556.042969 273.203125 555.261719 C 269.558594 554.480469 265.9375 553.617188 262.332031 552.671875 C 258.730469 551.726562 255.152344 550.695312 251.59375 549.585938 C 248.039062 548.472656 244.511719 547.28125 241.011719 546.007812 C 237.511719 544.734375 234.039062 543.382812 230.601562 541.949219 C 227.164062 540.519531 223.757812 539.007812 220.390625 537.417969 C 217.019531 535.828125 213.6875 534.164062 210.394531 532.421875 C 207.105469 530.679688 203.851562 528.863281 200.644531 526.972656 C 197.433594 525.082031 194.269531 523.117188 191.152344 521.082031 C 188.03125 519.042969 184.960938 516.9375 181.9375 514.757812 C 178.914062 512.582031 175.945312 510.335938 173.027344 508.023438 C 170.105469 505.707031 167.242188 503.328125 164.433594 500.882812 C 161.621094 498.4375 158.871094 495.925781 156.175781 493.355469 C 153.480469 490.78125 150.847656 488.148438 148.273438 485.457031 C 145.699219 482.765625 143.1875 480.011719 140.742188 477.203125 C 138.292969 474.398438 135.914062 471.535156 133.597656 468.617188 C 131.28125 465.699219 129.03125 462.726562 126.855469 459.707031 C 124.675781 456.6875 122.566406 453.617188 120.527344 450.5 C 118.488281 447.378906 116.523438 444.21875 114.628906 441.007812 C 112.738281 437.800781 110.917969 434.550781 109.175781 431.257812 C 107.429688 427.96875 105.761719 424.636719 104.171875 421.269531 C 102.582031 417.902344 101.066406 414.496094 99.632812 411.058594 C 98.199219 407.621094 96.84375 404.152344 95.570312 400.652344 C 94.292969 397.152344 93.097656 393.625 91.988281 390.070312 L 324.160156 317.367188 Z M 324.160156 74.074219 " fill-opacity="1" fill-rule="nonzero"/><path fill="#78019d" d="M 91.988281 390.070312 C 89.566406 382.335938 87.535156 374.5 85.894531 366.566406 C 84.257812 358.628906 83.019531 350.628906 82.179688 342.570312 C 81.339844 334.507812 80.902344 326.425781 80.871094 318.324219 C 80.839844 310.21875 81.210938 302.132812 81.988281 294.066406 C 82.765625 286 83.941406 277.992188 85.515625 270.042969 C 87.09375 262.09375 89.0625 254.242188 91.421875 246.492188 C 93.78125 238.738281 96.523438 231.125 99.644531 223.644531 C 102.769531 216.167969 106.253906 208.863281 110.105469 201.730469 L 324.160156 317.367188 Z M 91.988281 390.070312 " fill-opacity="1" fill-rule="nonzero"/><path fill="#630a83" d="M 110.105469 201.730469 C 116.789062 189.359375 124.488281 177.65625 133.199219 166.617188 C 141.914062 155.582031 151.511719 145.375 161.992188 136.003906 L 324.160156 317.367188 Z M 110.105469 201.730469 " fill-opacity="1" fill-rule="nonzero"/><path fill="#9e19f0" d="M 161.992188 136.003906 C 167.511719 131.070312 173.238281 126.398438 179.183594 121.988281 C 185.125 117.582031 191.257812 113.449219 197.574219 109.601562 C 203.894531 105.75 210.375 102.195312 217.019531 98.9375 C 223.664062 95.679688 230.441406 92.726562 237.355469 90.089844 C 244.269531 87.449219 251.285156 85.128906 258.410156 83.128906 C 265.535156 81.128906 272.738281 79.457031 280.015625 78.113281 C 287.292969 76.769531 294.613281 75.761719 301.984375 75.085938 C 309.351562 74.414062 316.738281 74.074219 324.136719 74.074219 L 324.160156 317.367188 Z M 161.992188 136.003906 " fill-opacity="1" fill-rule="nonzero"/><g fill="#000000" fill-opacity="1"><g transform="translate(542.744958, 482.185056)"><g><path d="M 10.609375 -3.15625 L 8.5625 -3.15625 L 8.5625 0 L 7.078125 0 L 7.078125 -3.15625 L 0.40625 -3.15625 L 0.40625 -4.515625 L 6.921875 -13.796875 L 8.5625 -13.796875 L 8.5625 -4.5625 L 10.609375 -4.5625 Z M 7.078125 -4.5625 L 7.078125 -9.125 C 7.078125 -10.019531 7.109375 -11.03125 7.171875 -12.15625 L 7.09375 -12.15625 C 6.789062 -11.5625 6.507812 -11.066406 6.25 -10.671875 L 1.96875 -4.5625 Z M 7.078125 -4.5625 "/></g></g></g><g fill="#000000" fill-opacity="1"><g transform="translate(553.728782, 482.185056)"><g><path d="M 7.921875 -7.1875 L 12.578125 -7.1875 L 12.578125 -0.515625 C 11.859375 -0.285156 11.125 -0.113281 10.375 0 C 9.625 0.125 8.753906 0.1875 7.765625 0.1875 C 5.679688 0.1875 4.0625 -0.425781 2.90625 -1.65625 C 1.75 -2.894531 1.171875 -4.628906 1.171875 -6.859375 C 1.171875 -8.285156 1.457031 -9.535156 2.03125 -10.609375 C 2.601562 -11.679688 3.425781 -12.5 4.5 -13.0625 C 5.582031 -13.632812 6.84375 -13.921875 8.28125 -13.921875 C 9.75 -13.921875 11.113281 -13.648438 12.375 -13.109375 L 11.765625 -11.703125 C 10.523438 -12.222656 9.332031 -12.484375 8.1875 -12.484375 C 6.507812 -12.484375 5.203125 -11.984375 4.265625 -10.984375 C 3.328125 -9.992188 2.859375 -8.617188 2.859375 -6.859375 C 2.859375 -5.003906 3.3125 -3.597656 4.21875 -2.640625 C 5.125 -1.679688 6.453125 -1.203125 8.203125 -1.203125 C 9.148438 -1.203125 10.078125 -1.3125 10.984375 -1.53125 L 10.984375 -5.765625 L 7.921875 -5.765625 Z M 7.921875 -7.1875 "/></g></g></g><g fill="#000000" fill-opacity="1"><g transform="translate(527.881312, 505.285165)"><g><path d="M 2.671875 0 L 8.359375 -12.28125 L 0.875 -12.28125 L 0.875 -13.71875 L 10.015625 -13.71875 L 10.015625 -12.46875 L 4.40625 0 Z M 2.671875 0 "/></g></g></g><g fill="#000000" fill-opacity="1"><g transform="translate(538.865137, 505.285165)"><g><path d="M 10.03125 -6.875 C 10.03125 -4.507812 9.65625 -2.738281 8.90625 -1.5625 C 8.15625 -0.394531 7.015625 0.1875 5.484375 0.1875 C 4.003906 0.1875 2.878906 -0.410156 2.109375 -1.609375 C 1.335938 -2.804688 0.953125 -4.5625 0.953125 -6.875 C 0.953125 -9.269531 1.320312 -11.046875 2.0625 -12.203125 C 2.8125 -13.359375 3.953125 -13.9375 5.484375 -13.9375 C 6.972656 -13.9375 8.101562 -13.332031 8.875 -12.125 C 9.644531 -10.914062 10.03125 -9.164062 10.03125 -6.875 Z M 2.53125 -6.875 C 2.53125 -4.882812 2.765625 -3.429688 3.234375 -2.515625 C 3.703125 -1.609375 4.453125 -1.15625 5.484375 -1.15625 C 6.515625 -1.15625 7.265625 -1.613281 7.734375 -2.53125 C 8.203125 -3.457031 8.4375 -4.90625 8.4375 -6.875 C 8.4375 -8.84375 8.203125 -10.285156 7.734375 -11.203125 C 7.265625 -12.117188 6.515625 -12.578125 5.484375 -12.578125 C 4.453125 -12.578125 3.703125 -12.125 3.234375 -11.21875 C 2.765625 -10.320312 2.53125 -8.875 2.53125 -6.875 Z M 2.53125 -6.875 "/></g></g></g><g fill="#000000" fill-opacity="1"><g transform="translate(549.848961, 505.285165)"><g><path d="M 1.421875 -1 C 1.421875 -1.414062 1.515625 -1.726562 1.703125 -1.9375 C 1.898438 -2.15625 2.175781 -2.265625 2.53125 -2.265625 C 2.894531 -2.265625 3.175781 -2.15625 3.375 -1.9375 C 3.582031 -1.726562 3.6875 -1.414062 3.6875 -1 C 3.6875 -0.59375 3.582031 -0.28125 3.375 -0.0625 C 3.164062 0.15625 2.882812 0.265625 2.53125 0.265625 C 2.21875 0.265625 1.953125 0.171875 1.734375 -0.015625 C 1.523438 -0.210938 1.421875 -0.539062 1.421875 -1 Z M 1.421875 -1 "/></g></g></g><g fill="#000000" fill-opacity="1"><g transform="translate(554.960989, 505.285165)"><g><path d="M 9.953125 0 L 0.9375 0 L 0.9375 -1.34375 L 4.546875 -4.96875 C 5.648438 -6.082031 6.375 -6.878906 6.71875 -7.359375 C 7.070312 -7.835938 7.335938 -8.300781 7.515625 -8.75 C 7.691406 -9.195312 7.78125 -9.679688 7.78125 -10.203125 C 7.78125 -10.929688 7.554688 -11.507812 7.109375 -11.9375 C 6.671875 -12.363281 6.054688 -12.578125 5.265625 -12.578125 C 4.691406 -12.578125 4.148438 -12.484375 3.640625 -12.296875 C 3.128906 -12.109375 2.5625 -11.769531 1.9375 -11.28125 L 1.109375 -12.34375 C 2.378906 -13.394531 3.757812 -13.921875 5.25 -13.921875 C 6.53125 -13.921875 7.535156 -13.585938 8.265625 -12.921875 C 9.003906 -12.265625 9.375 -11.378906 9.375 -10.265625 C 9.375 -9.398438 9.128906 -8.539062 8.640625 -7.6875 C 8.148438 -6.832031 7.238281 -5.753906 5.90625 -4.453125 L 2.90625 -1.515625 L 2.90625 -1.4375 L 9.953125 -1.4375 Z M 9.953125 0 "/></g></g></g><g fill="#000000" fill-opacity="1"><g transform="translate(565.944813, 505.285165)"><g><path d="M 2.265625 -9.625 C 2.265625 -8.5625 2.378906 -7.765625 2.609375 -7.234375 C 2.847656 -6.703125 3.226562 -6.4375 3.75 -6.4375 C 4.769531 -6.4375 5.28125 -7.5 5.28125 -9.625 C 5.28125 -11.738281 4.769531 -12.796875 3.75 -12.796875 C 3.226562 -12.796875 2.847656 -12.53125 2.609375 -12 C 2.378906 -11.476562 2.265625 -10.6875 2.265625 -9.625 Z M 6.5625 -9.625 C 6.5625 -8.195312 6.320312 -7.117188 5.84375 -6.390625 C 5.375 -5.660156 4.675781 -5.296875 3.75 -5.296875 C 2.875 -5.296875 2.191406 -5.664062 1.703125 -6.40625 C 1.210938 -7.15625 0.96875 -8.226562 0.96875 -9.625 C 0.96875 -11.050781 1.203125 -12.125 1.671875 -12.84375 C 2.140625 -13.5625 2.832031 -13.921875 3.75 -13.921875 C 4.65625 -13.921875 5.347656 -13.546875 5.828125 -12.796875 C 6.316406 -12.054688 6.5625 -11 6.5625 -9.625 Z M 10.53125 -4.125 C 10.53125 -3.0625 10.644531 -2.265625 10.875 -1.734375 C 11.101562 -1.203125 11.484375 -0.9375 12.015625 -0.9375 C 12.535156 -0.9375 12.921875 -1.195312 13.171875 -1.71875 C 13.421875 -2.238281 13.546875 -3.039062 13.546875 -4.125 C 13.546875 -5.195312 13.421875 -5.988281 13.171875 -6.5 C 12.921875 -7.019531 12.535156 -7.28125 12.015625 -7.28125 C 11.484375 -7.28125 11.101562 -7.019531 10.875 -6.5 C 10.644531 -5.988281 10.53125 -5.195312 10.53125 -4.125 Z M 14.84375 -4.125 C 14.84375 -2.707031 14.601562 -1.632812 14.125 -0.90625 C 13.644531 -0.175781 12.941406 0.1875 12.015625 0.1875 C 11.117188 0.1875 10.429688 -0.179688 9.953125 -0.921875 C 9.484375 -1.671875 9.25 -2.738281 9.25 -4.125 C 9.25 -5.550781 9.476562 -6.625 9.9375 -7.34375 C 10.40625 -8.0625 11.097656 -8.421875 12.015625 -8.421875 C 12.898438 -8.421875 13.59375 -8.050781 14.09375 -7.3125 C 14.59375 -6.582031 14.84375 -5.519531 14.84375 -4.125 Z M 12.421875 -13.71875 L 4.8125 0 L 3.421875 0 L 11.03125 -13.71875 Z M 12.421875 -13.71875 "/></g></g></g><g fill="#000000" fill-opacity="1"><g transform="translate(32.160233, 285.827756)"><g><path d="M 5.234375 -8.375 C 6.671875 -8.375 7.800781 -8.015625 8.625 -7.296875 C 9.457031 -6.585938 9.875 -5.609375 9.875 -4.359375 C 9.875 -2.941406 9.421875 -1.828125 8.515625 -1.015625 C 7.617188 -0.210938 6.375 0.1875 4.78125 0.1875 C 3.238281 0.1875 2.0625 -0.0546875 1.25 -0.546875 L 1.25 -2.0625 C 1.6875 -1.78125 2.226562 -1.554688 2.875 -1.390625 C 3.53125 -1.234375 4.175781 -1.15625 4.8125 -1.15625 C 5.90625 -1.15625 6.753906 -1.414062 7.359375 -1.9375 C 7.972656 -2.457031 8.28125 -3.207031 8.28125 -4.1875 C 8.28125 -6.101562 7.109375 -7.0625 4.765625 -7.0625 C 4.171875 -7.0625 3.378906 -6.96875 2.390625 -6.78125 L 1.578125 -7.296875 L 2.09375 -13.71875 L 8.921875 -13.71875 L 8.921875 -12.28125 L 3.421875 -12.28125 L 3.078125 -8.171875 C 3.796875 -8.304688 4.515625 -8.375 5.234375 -8.375 Z M 5.234375 -8.375 "/></g></g></g><g fill="#000000" fill-opacity="1"><g transform="translate(43.144058, 285.827756)"><g><path d="M 7.921875 -7.1875 L 12.578125 -7.1875 L 12.578125 -0.515625 C 11.859375 -0.285156 11.125 -0.113281 10.375 0 C 9.625 0.125 8.753906 0.1875 7.765625 0.1875 C 5.679688 0.1875 4.0625 -0.425781 2.90625 -1.65625 C 1.75 -2.894531 1.171875 -4.628906 1.171875 -6.859375 C 1.171875 -8.285156 1.457031 -9.535156 2.03125 -10.609375 C 2.601562 -11.679688 3.425781 -12.5 4.5 -13.0625 C 5.582031 -13.632812 6.84375 -13.921875 8.28125 -13.921875 C 9.75 -13.921875 11.113281 -13.648438 12.375 -13.109375 L 11.765625 -11.703125 C 10.523438 -12.222656 9.332031 -12.484375 8.1875 -12.484375 C 6.507812 -12.484375 5.203125 -11.984375 4.265625 -10.984375 C 3.328125 -9.992188 2.859375 -8.617188 2.859375 -6.859375 C 2.859375 -5.003906 3.3125 -3.597656 4.21875 -2.640625 C 5.125 -1.679688 6.453125 -1.203125 8.203125 -1.203125 C 9.148438 -1.203125 10.078125 -1.3125 10.984375 -1.53125 L 10.984375 -5.765625 L 7.921875 -5.765625 Z M 7.921875 -7.1875 "/></g></g></g><g fill="#000000" fill-opacity="1"><g transform="translate(17.309256, 308.927869)"><g><path d="M 6.703125 0 L 5.1875 0 L 5.1875 -9.78125 C 5.1875 -10.59375 5.210938 -11.363281 5.265625 -12.09375 C 5.128906 -11.957031 4.976562 -11.816406 4.8125 -11.671875 C 4.65625 -11.523438 3.914062 -10.914062 2.59375 -9.84375 L 1.765625 -10.90625 L 5.390625 -13.71875 L 6.703125 -13.71875 Z M 6.703125 0 "/></g></g></g><g fill="#000000" fill-opacity="1"><g transform="translate(28.29308, 308.927869)"><g><path d="M 9.953125 0 L 0.9375 0 L 0.9375 -1.34375 L 4.546875 -4.96875 C 5.648438 -6.082031 6.375 -6.878906 6.71875 -7.359375 C 7.070312 -7.835938 7.335938 -8.300781 7.515625 -8.75 C 7.691406 -9.195312 7.78125 -9.679688 7.78125 -10.203125 C 7.78125 -10.929688 7.554688 -11.507812 7.109375 -11.9375 C 6.671875 -12.363281 6.054688 -12.578125 5.265625 -12.578125 C 4.691406 -12.578125 4.148438 -12.484375 3.640625 -12.296875 C 3.128906 -12.109375 2.5625 -11.769531 1.9375 -11.28125 L 1.109375 -12.34375 C 2.378906 -13.394531 3.757812 -13.921875 5.25 -13.921875 C 6.53125 -13.921875 7.535156 -13.585938 8.265625 -12.921875 C 9.003906 -12.265625 9.375 -11.378906 9.375 -10.265625 C 9.375 -9.398438 9.128906 -8.539062 8.640625 -7.6875 C 8.148438 -6.832031 7.238281 -5.753906 5.90625 -4.453125 L 2.90625 -1.515625 L 2.90625 -1.4375 L 9.953125 -1.4375 Z M 9.953125 0 "/></g></g></g><g fill="#000000" fill-opacity="1"><g transform="translate(39.276904, 308.927869)"><g><path d="M 1.421875 -1 C 1.421875 -1.414062 1.515625 -1.726562 1.703125 -1.9375 C 1.898438 -2.15625 2.175781 -2.265625 2.53125 -2.265625 C 2.894531 -2.265625 3.175781 -2.15625 3.375 -1.9375 C 3.582031 -1.726562 3.6875 -1.414062 3.6875 -1 C 3.6875 -0.59375 3.582031 -0.28125 3.375 -0.0625 C 3.164062 0.15625 2.882812 0.265625 2.53125 0.265625 C 2.21875 0.265625 1.953125 0.171875 1.734375 -0.015625 C 1.523438 -0.210938 1.421875 -0.539062 1.421875 -1 Z M 1.421875 -1 "/></g></g></g><g fill="#000000" fill-opacity="1"><g transform="translate(44.388932, 308.927869)"><g><path d="M 2.671875 0 L 8.359375 -12.28125 L 0.875 -12.28125 L 0.875 -13.71875 L 10.015625 -13.71875 L 10.015625 -12.46875 L 4.40625 0 Z M 2.671875 0 "/></g></g></g><g fill="#000000" fill-opacity="1"><g transform="translate(55.372756, 308.927869)"><g><path d="M 2.265625 -9.625 C 2.265625 -8.5625 2.378906 -7.765625 2.609375 -7.234375 C 2.847656 -6.703125 3.226562 -6.4375 3.75 -6.4375 C 4.769531 -6.4375 5.28125 -7.5 5.28125 -9.625 C 5.28125 -11.738281 4.769531 -12.796875 3.75 -12.796875 C 3.226562 -12.796875 2.847656 -12.53125 2.609375 -12 C 2.378906 -11.476562 2.265625 -10.6875 2.265625 -9.625 Z M 6.5625 -9.625 C 6.5625 -8.195312 6.320312 -7.117188 5.84375 -6.390625 C 5.375 -5.660156 4.675781 -5.296875 3.75 -5.296875 C 2.875 -5.296875 2.191406 -5.664062 1.703125 -6.40625 C 1.210938 -7.15625 0.96875 -8.226562 0.96875 -9.625 C 0.96875 -11.050781 1.203125 -12.125 1.671875 -12.84375 C 2.140625 -13.5625 2.832031 -13.921875 3.75 -13.921875 C 4.65625 -13.921875 5.347656 -13.546875 5.828125 -12.796875 C 6.316406 -12.054688 6.5625 -11 6.5625 -9.625 Z M 10.53125 -4.125 C 10.53125 -3.0625 10.644531 -2.265625 10.875 -1.734375 C 11.101562 -1.203125 11.484375 -0.9375 12.015625 -0.9375 C 12.535156 -0.9375 12.921875 -1.195312 13.171875 -1.71875 C 13.421875 -2.238281 13.546875 -3.039062 13.546875 -4.125 C 13.546875 -5.195312 13.421875 -5.988281 13.171875 -6.5 C 12.921875 -7.019531 12.535156 -7.28125 12.015625 -7.28125 C 11.484375 -7.28125 11.101562 -7.019531 10.875 -6.5 C 10.644531 -5.988281 10.53125 -5.195312 10.53125 -4.125 Z M 14.84375 -4.125 C 14.84375 -2.707031 14.601562 -1.632812 14.125 -0.90625 C 13.644531 -0.175781 12.941406 0.1875 12.015625 0.1875 C 11.117188 0.1875 10.429688 -0.179688 9.953125 -0.921875 C 9.484375 -1.671875 9.25 -2.738281 9.25 -4.125 C 9.25 -5.550781 9.476562 -6.625 9.9375 -7.34375 C 10.40625 -8.0625 11.097656 -8.421875 12.015625 -8.421875 C 12.898438 -8.421875 13.59375 -8.050781 14.09375 -7.3125 C 14.59375 -6.582031 14.84375 -5.519531 14.84375 -4.125 Z M 12.421875 -13.71875 L 4.8125 0 L 3.421875 0 L 11.03125 -13.71875 Z M 12.421875 -13.71875 "/></g></g></g><g fill="#000000" fill-opacity="1"><g transform="translate(211.778501, 51.101206)"><g><path d="M 9.953125 0 L 0.9375 0 L 0.9375 -1.34375 L 4.546875 -4.96875 C 5.648438 -6.082031 6.375 -6.878906 6.71875 -7.359375 C 7.070312 -7.835938 7.335938 -8.300781 7.515625 -8.75 C 7.691406 -9.195312 7.78125 -9.679688 7.78125 -10.203125 C 7.78125 -10.929688 7.554688 -11.507812 7.109375 -11.9375 C 6.671875 -12.363281 6.054688 -12.578125 5.265625 -12.578125 C 4.691406 -12.578125 4.148438 -12.484375 3.640625 -12.296875 C 3.128906 -12.109375 2.5625 -11.769531 1.9375 -11.28125 L 1.109375 -12.34375 C 2.378906 -13.394531 3.757812 -13.921875 5.25 -13.921875 C 6.53125 -13.921875 7.535156 -13.585938 8.265625 -12.921875 C 9.003906 -12.265625 9.375 -11.378906 9.375 -10.265625 C 9.375 -9.398438 9.128906 -8.539062 8.640625 -7.6875 C 8.148438 -6.832031 7.238281 -5.753906 5.90625 -4.453125 L 2.90625 -1.515625 L 2.90625 -1.4375 L 9.953125 -1.4375 Z M 9.953125 0 "/></g></g></g><g fill="#000000" fill-opacity="1"><g transform="translate(222.762325, 51.101206)"><g><path d="M 7.921875 -7.1875 L 12.578125 -7.1875 L 12.578125 -0.515625 C 11.859375 -0.285156 11.125 -0.113281 10.375 0 C 9.625 0.125 8.753906 0.1875 7.765625 0.1875 C 5.679688 0.1875 4.0625 -0.425781 2.90625 -1.65625 C 1.75 -2.894531 1.171875 -4.628906 1.171875 -6.859375 C 1.171875 -8.285156 1.457031 -9.535156 2.03125 -10.609375 C 2.601562 -11.679688 3.425781 -12.5 4.5 -13.0625 C 5.582031 -13.632812 6.84375 -13.921875 8.28125 -13.921875 C 9.75 -13.921875 11.113281 -13.648438 12.375 -13.109375 L 11.765625 -11.703125 C 10.523438 -12.222656 9.332031 -12.484375 8.1875 -12.484375 C 6.507812 -12.484375 5.203125 -11.984375 4.265625 -10.984375 C 3.328125 -9.992188 2.859375 -8.617188 2.859375 -6.859375 C 2.859375 -5.003906 3.3125 -3.597656 4.21875 -2.640625 C 5.125 -1.679688 6.453125 -1.203125 8.203125 -1.203125 C 9.148438 -1.203125 10.078125 -1.3125 10.984375 -1.53125 L 10.984375 -5.765625 L 7.921875 -5.765625 Z M 7.921875 -7.1875 "/></g></g></g><g fill="#000000" fill-opacity="1"><g transform="translate(196.914852, 74.201323)"><g><path d="M 6.703125 0 L 5.1875 0 L 5.1875 -9.78125 C 5.1875 -10.59375 5.210938 -11.363281 5.265625 -12.09375 C 5.128906 -11.957031 4.976562 -11.816406 4.8125 -11.671875 C 4.65625 -11.523438 3.914062 -10.914062 2.59375 -9.84375 L 1.765625 -10.90625 L 5.390625 -13.71875 L 6.703125 -13.71875 Z M 6.703125 0 "/></g></g></g><g fill="#000000" fill-opacity="1"><g transform="translate(207.898676, 74.201323)"><g><path d="M 6.703125 0 L 5.1875 0 L 5.1875 -9.78125 C 5.1875 -10.59375 5.210938 -11.363281 5.265625 -12.09375 C 5.128906 -11.957031 4.976562 -11.816406 4.8125 -11.671875 C 4.65625 -11.523438 3.914062 -10.914062 2.59375 -9.84375 L 1.765625 -10.90625 L 5.390625 -13.71875 L 6.703125 -13.71875 Z M 6.703125 0 "/></g></g></g><g fill="#000000" fill-opacity="1"><g transform="translate(218.8825, 74.201323)"><g><path d="M 1.421875 -1 C 1.421875 -1.414062 1.515625 -1.726562 1.703125 -1.9375 C 1.898438 -2.15625 2.175781 -2.265625 2.53125 -2.265625 C 2.894531 -2.265625 3.175781 -2.15625 3.375 -1.9375 C 3.582031 -1.726562 3.6875 -1.414062 3.6875 -1 C 3.6875 -0.59375 3.582031 -0.28125 3.375 -0.0625 C 3.164062 0.15625 2.882812 0.265625 2.53125 0.265625 C 2.21875 0.265625 1.953125 0.171875 1.734375 -0.015625 C 1.523438 -0.210938 1.421875 -0.539062 1.421875 -1 Z M 1.421875 -1 "/></g></g></g><g fill="#000000" fill-opacity="1"><g transform="translate(223.994528, 74.201323)"><g><path d="M 1.09375 -5.859375 C 1.09375 -8.554688 1.613281 -10.570312 2.65625 -11.90625 C 3.707031 -13.25 5.257812 -13.921875 7.3125 -13.921875 C 8.019531 -13.921875 8.578125 -13.859375 8.984375 -13.734375 L 8.984375 -12.390625 C 8.503906 -12.546875 7.957031 -12.625 7.34375 -12.625 C 5.875 -12.625 4.75 -12.164062 3.96875 -11.25 C 3.195312 -10.332031 2.769531 -8.894531 2.6875 -6.9375 L 2.8125 -6.9375 C 3.5 -8.007812 4.585938 -8.546875 6.078125 -8.546875 C 7.304688 -8.546875 8.273438 -8.171875 8.984375 -7.421875 C 9.691406 -6.679688 10.046875 -5.675781 10.046875 -4.40625 C 10.046875 -2.976562 9.65625 -1.851562 8.875 -1.03125 C 8.101562 -0.21875 7.050781 0.1875 5.71875 0.1875 C 4.300781 0.1875 3.175781 -0.34375 2.34375 -1.40625 C 1.507812 -2.476562 1.09375 -3.960938 1.09375 -5.859375 Z M 5.703125 -1.140625 C 6.585938 -1.140625 7.273438 -1.414062 7.765625 -1.96875 C 8.265625 -2.53125 8.515625 -3.34375 8.515625 -4.40625 C 8.515625 -5.3125 8.285156 -6.019531 7.828125 -6.53125 C 7.367188 -7.050781 6.6875 -7.3125 5.78125 -7.3125 C 5.21875 -7.3125 4.703125 -7.195312 4.234375 -6.96875 C 3.765625 -6.738281 3.390625 -6.421875 3.109375 -6.015625 C 2.828125 -5.609375 2.6875 -5.1875 2.6875 -4.75 C 2.6875 -4.101562 2.8125 -3.5 3.0625 -2.9375 C 3.3125 -2.382812 3.664062 -1.945312 4.125 -1.625 C 4.59375 -1.300781 5.117188 -1.140625 5.703125 -1.140625 Z M 5.703125 -1.140625 "/></g></g></g><g fill="#000000" fill-opacity="1"><g transform="translate(234.978352, 74.201323)"><g><path d="M 2.265625 -9.625 C 2.265625 -8.5625 2.378906 -7.765625 2.609375 -7.234375 C 2.847656 -6.703125 3.226562 -6.4375 3.75 -6.4375 C 4.769531 -6.4375 5.28125 -7.5 5.28125 -9.625 C 5.28125 -11.738281 4.769531 -12.796875 3.75 -12.796875 C 3.226562 -12.796875 2.847656 -12.53125 2.609375 -12 C 2.378906 -11.476562 2.265625 -10.6875 2.265625 -9.625 Z M 6.5625 -9.625 C 6.5625 -8.195312 6.320312 -7.117188 5.84375 -6.390625 C 5.375 -5.660156 4.675781 -5.296875 3.75 -5.296875 C 2.875 -5.296875 2.191406 -5.664062 1.703125 -6.40625 C 1.210938 -7.15625 0.96875 -8.226562 0.96875 -9.625 C 0.96875 -11.050781 1.203125 -12.125 1.671875 -12.84375 C 2.140625 -13.5625 2.832031 -13.921875 3.75 -13.921875 C 4.65625 -13.921875 5.347656 -13.546875 5.828125 -12.796875 C 6.316406 -12.054688 6.5625 -11 6.5625 -9.625 Z M 10.53125 -4.125 C 10.53125 -3.0625 10.644531 -2.265625 10.875 -1.734375 C 11.101562 -1.203125 11.484375 -0.9375 12.015625 -0.9375 C 12.535156 -0.9375 12.921875 -1.195312 13.171875 -1.71875 C 13.421875 -2.238281 13.546875 -3.039062 13.546875 -4.125 C 13.546875 -5.195312 13.421875 -5.988281 13.171875 -6.5 C 12.921875 -7.019531 12.535156 -7.28125 12.015625 -7.28125 C 11.484375 -7.28125 11.101562 -7.019531 10.875 -6.5 C 10.644531 -5.988281 10.53125 -5.195312 10.53125 -4.125 Z M 14.84375 -4.125 C 14.84375 -2.707031 14.601562 -1.632812 14.125 -0.90625 C 13.644531 -0.175781 12.941406 0.1875 12.015625 0.1875 C 11.117188 0.1875 10.429688 -0.179688 9.953125 -0.921875 C 9.484375 -1.671875 9.25 -2.738281 9.25 -4.125 C 9.25 -5.550781 9.476562 -6.625 9.9375 -7.34375 C 10.40625 -8.0625 11.097656 -8.421875 12.015625 -8.421875 C 12.898438 -8.421875 13.59375 -8.050781 14.09375 -7.3125 C 14.59375 -6.582031 14.84375 -5.519531 14.84375 -4.125 Z M 12.421875 -13.71875 L 4.8125 0 L 3.421875 0 L 11.03125 -13.71875 Z M 12.421875 -13.71875 "/></g></g></g><g fill="#000000" fill-opacity="1"><g transform="translate(90.53775, 138.141625)"><g><path d="M 9.4375 -10.484375 C 9.4375 -9.609375 9.191406 -8.890625 8.703125 -8.328125 C 8.210938 -7.773438 7.515625 -7.40625 6.609375 -7.21875 L 6.609375 -7.15625 C 7.710938 -7.007812 8.53125 -6.65625 9.0625 -6.09375 C 9.59375 -5.53125 9.859375 -4.796875 9.859375 -3.890625 C 9.859375 -2.578125 9.40625 -1.566406 8.5 -0.859375 C 7.59375 -0.160156 6.304688 0.1875 4.640625 0.1875 C 3.910156 0.1875 3.242188 0.128906 2.640625 0.015625 C 2.035156 -0.0859375 1.445312 -0.273438 0.875 -0.546875 L 0.875 -2.03125 C 1.476562 -1.738281 2.113281 -1.515625 2.78125 -1.359375 C 3.457031 -1.210938 4.09375 -1.140625 4.6875 -1.140625 C 7.0625 -1.140625 8.25 -2.066406 8.25 -3.921875 C 8.25 -5.585938 6.941406 -6.421875 4.328125 -6.421875 L 2.96875 -6.421875 L 2.96875 -7.765625 L 4.34375 -7.765625 C 5.414062 -7.765625 6.265625 -8 6.890625 -8.46875 C 7.515625 -8.9375 7.828125 -9.59375 7.828125 -10.4375 C 7.828125 -11.101562 7.597656 -11.625 7.140625 -12 C 6.679688 -12.382812 6.054688 -12.578125 5.265625 -12.578125 C 4.660156 -12.578125 4.09375 -12.492188 3.5625 -12.328125 C 3.03125 -12.171875 2.425781 -11.875 1.75 -11.4375 L 0.953125 -12.484375 C 1.515625 -12.929688 2.160156 -13.28125 2.890625 -13.53125 C 3.628906 -13.789062 4.410156 -13.921875 5.234375 -13.921875 C 6.554688 -13.921875 7.585938 -13.613281 8.328125 -13 C 9.066406 -12.394531 9.4375 -11.554688 9.4375 -10.484375 Z M 9.4375 -10.484375 "/></g></g></g><g fill="#000000" fill-opacity="1"><g transform="translate(101.521574, 138.141625)"><g><path d="M 7.921875 -7.1875 L 12.578125 -7.1875 L 12.578125 -0.515625 C 11.859375 -0.285156 11.125 -0.113281 10.375 0 C 9.625 0.125 8.753906 0.1875 7.765625 0.1875 C 5.679688 0.1875 4.0625 -0.425781 2.90625 -1.65625 C 1.75 -2.894531 1.171875 -4.628906 1.171875 -6.859375 C 1.171875 -8.285156 1.457031 -9.535156 2.03125 -10.609375 C 2.601562 -11.679688 3.425781 -12.5 4.5 -13.0625 C 5.582031 -13.632812 6.84375 -13.921875 8.28125 -13.921875 C 9.75 -13.921875 11.113281 -13.648438 12.375 -13.109375 L 11.765625 -11.703125 C 10.523438 -12.222656 9.332031 -12.484375 8.1875 -12.484375 C 6.507812 -12.484375 5.203125 -11.984375 4.265625 -10.984375 C 3.328125 -9.992188 2.859375 -8.617188 2.859375 -6.859375 C 2.859375 -5.003906 3.3125 -3.597656 4.21875 -2.640625 C 5.125 -1.679688 6.453125 -1.203125 8.203125 -1.203125 C 9.148438 -1.203125 10.078125 -1.3125 10.984375 -1.53125 L 10.984375 -5.765625 L 7.921875 -5.765625 Z M 7.921875 -7.1875 "/></g></g></g><g fill="#000000" fill-opacity="1"><g transform="translate(81.579016, 161.241734)"><g><path d="M 5.234375 -8.375 C 6.671875 -8.375 7.800781 -8.015625 8.625 -7.296875 C 9.457031 -6.585938 9.875 -5.609375 9.875 -4.359375 C 9.875 -2.941406 9.421875 -1.828125 8.515625 -1.015625 C 7.617188 -0.210938 6.375 0.1875 4.78125 0.1875 C 3.238281 0.1875 2.0625 -0.0546875 1.25 -0.546875 L 1.25 -2.0625 C 1.6875 -1.78125 2.226562 -1.554688 2.875 -1.390625 C 3.53125 -1.234375 4.175781 -1.15625 4.8125 -1.15625 C 5.90625 -1.15625 6.753906 -1.414062 7.359375 -1.9375 C 7.972656 -2.457031 8.28125 -3.207031 8.28125 -4.1875 C 8.28125 -6.101562 7.109375 -7.0625 4.765625 -7.0625 C 4.171875 -7.0625 3.378906 -6.96875 2.390625 -6.78125 L 1.578125 -7.296875 L 2.09375 -13.71875 L 8.921875 -13.71875 L 8.921875 -12.28125 L 3.421875 -12.28125 L 3.078125 -8.171875 C 3.796875 -8.304688 4.515625 -8.375 5.234375 -8.375 Z M 5.234375 -8.375 "/></g></g></g><g fill="#000000" fill-opacity="1"><g transform="translate(92.56284, 161.241734)"><g><path d="M 1.421875 -1 C 1.421875 -1.414062 1.515625 -1.726562 1.703125 -1.9375 C 1.898438 -2.15625 2.175781 -2.265625 2.53125 -2.265625 C 2.894531 -2.265625 3.175781 -2.15625 3.375 -1.9375 C 3.582031 -1.726562 3.6875 -1.414062 3.6875 -1 C 3.6875 -0.59375 3.582031 -0.28125 3.375 -0.0625 C 3.164062 0.15625 2.882812 0.265625 2.53125 0.265625 C 2.21875 0.265625 1.953125 0.171875 1.734375 -0.015625 C 1.523438 -0.210938 1.421875 -0.539062 1.421875 -1 Z M 1.421875 -1 "/></g></g></g><g fill="#000000" fill-opacity="1"><g transform="translate(97.674868, 161.241734)"><g><path d="M 5.234375 -8.375 C 6.671875 -8.375 7.800781 -8.015625 8.625 -7.296875 C 9.457031 -6.585938 9.875 -5.609375 9.875 -4.359375 C 9.875 -2.941406 9.421875 -1.828125 8.515625 -1.015625 C 7.617188 -0.210938 6.375 0.1875 4.78125 0.1875 C 3.238281 0.1875 2.0625 -0.0546875 1.25 -0.546875 L 1.25 -2.0625 C 1.6875 -1.78125 2.226562 -1.554688 2.875 -1.390625 C 3.53125 -1.234375 4.175781 -1.15625 4.8125 -1.15625 C 5.90625 -1.15625 6.753906 -1.414062 7.359375 -1.9375 C 7.972656 -2.457031 8.28125 -3.207031 8.28125 -4.1875 C 8.28125 -6.101562 7.109375 -7.0625 4.765625 -7.0625 C 4.171875 -7.0625 3.378906 -6.96875 2.390625 -6.78125 L 1.578125 -7.296875 L 2.09375 -13.71875 L 8.921875 -13.71875 L 8.921875 -12.28125 L 3.421875 -12.28125 L 3.078125 -8.171875 C 3.796875 -8.304688 4.515625 -8.375 5.234375 -8.375 Z M 5.234375 -8.375 "/></g></g></g><g fill="#000000" fill-opacity="1"><g transform="translate(108.658692, 161.241734)"><g><path d="M 2.265625 -9.625 C 2.265625 -8.5625 2.378906 -7.765625 2.609375 -7.234375 C 2.847656 -6.703125 3.226562 -6.4375 3.75 -6.4375 C 4.769531 -6.4375 5.28125 -7.5 5.28125 -9.625 C 5.28125 -11.738281 4.769531 -12.796875 3.75 -12.796875 C 3.226562 -12.796875 2.847656 -12.53125 2.609375 -12 C 2.378906 -11.476562 2.265625 -10.6875 2.265625 -9.625 Z M 6.5625 -9.625 C 6.5625 -8.195312 6.320312 -7.117188 5.84375 -6.390625 C 5.375 -5.660156 4.675781 -5.296875 3.75 -5.296875 C 2.875 -5.296875 2.191406 -5.664062 1.703125 -6.40625 C 1.210938 -7.15625 0.96875 -8.226562 0.96875 -9.625 C 0.96875 -11.050781 1.203125 -12.125 1.671875 -12.84375 C 2.140625 -13.5625 2.832031 -13.921875 3.75 -13.921875 C 4.65625 -13.921875 5.347656 -13.546875 5.828125 -12.796875 C 6.316406 -12.054688 6.5625 -11 6.5625 -9.625 Z M 10.53125 -4.125 C 10.53125 -3.0625 10.644531 -2.265625 10.875 -1.734375 C 11.101562 -1.203125 11.484375 -0.9375 12.015625 -0.9375 C 12.535156 -0.9375 12.921875 -1.195312 13.171875 -1.71875 C 13.421875 -2.238281 13.546875 -3.039062 13.546875 -4.125 C 13.546875 -5.195312 13.421875 -5.988281 13.171875 -6.5 C 12.921875 -7.019531 12.535156 -7.28125 12.015625 -7.28125 C 11.484375 -7.28125 11.101562 -7.019531 10.875 -6.5 C 10.644531 -5.988281 10.53125 -5.195312 10.53125 -4.125 Z M 14.84375 -4.125 C 14.84375 -2.707031 14.601562 -1.632812 14.125 -0.90625 C 13.644531 -0.175781 12.941406 0.1875 12.015625 0.1875 C 11.117188 0.1875 10.429688 -0.179688 9.953125 -0.921875 C 9.484375 -1.671875 9.25 -2.738281 9.25 -4.125 C 9.25 -5.550781 9.476562 -6.625 9.9375 -7.34375 C 10.40625 -8.0625 11.097656 -8.421875 12.015625 -8.421875 C 12.898438 -8.421875 13.59375 -8.050781 14.09375 -7.3125 C 14.59375 -6.582031 14.84375 -5.519531 14.84375 -4.125 Z M 12.421875 -13.71875 L 4.8125 0 L 3.421875 0 L 11.03125 -13.71875 Z M 12.421875 -13.71875 "/></g></g></g></svg>